<svg id="Layer_1" data-name="Layer 1" xmlns="http://www.w3.org/2000/svg" viewBox="0 0 986.35 834.26"><defs><style>.cls-1{fill:#222335;}.cls-2{fill:#33354f;}.cls-3{fill:#aabfff;}.cls-4{fill:#393a4d;}.cls-5{fill:#6d7486;}.cls-6{fill:#51547d;}.cls-7{fill:#303583;}.cls-8{fill:#ce3a46;}.cls-9{fill:#fff;stroke:#fff;stroke-linecap:round;stroke-linejoin:round;stroke-width:20px;}.cls-10{fill:#f2cb7d;}</style></defs><path class="cls-1" d="M942.27,307.69q.16,244.72.32,489.46l-819.53,0,0-174.64c1.09-5.36,3.1-10.72,3.12-16.09q.31-98,0-196.1c0-5.36-2-10.71-3.13-16.07q0-9.63,0-19.27,0-14.59,0-29.18l.33-38.11ZM501.53,702.77q97,0,194,0c20.46,0,21-.49,21-20.22q0-130.62,0-261.23c0-20.17-1.7-21.88-21.74-21.89q-192.48,0-385,0c-20,0-21.73,1.71-21.73,21.89q0,130.6,0,261.22c0,19.74.52,20.22,21,20.23Q405.29,702.79,501.53,702.77ZM191.64,541.94c-11,4.72-30.39-4.58-31.07,14.27-.78,21.65,21.17,10.28,32.93,17.13,0,5.09-1.54,11.23.4,15.92,2.33,5.63,7.64,10,11.65,15,4.15-4.77,9.78-8.94,12-14.48,2.05-5.08.43-11.64.43-19.26,8.72,0,16,1.83,21.51-.5,5.85-2.47,10-8.89,15-13.59-4.87-4.24-9.1-10.13-14.76-12.28-6.13-2.32-13.59-1.14-18.31-1.38-8.9-11.17,6.29-31.72-14.3-32.35C185.81,509.72,197.23,530.57,191.64,541.94Zm612,1.51v.16c-11.16,0-22.58-1.39-33.37.59-5.29,1-9.42,8.23-14.07,12.65,4.59,4.48,8.48,10.55,14,13,5.13,2.25,12,.68,18.06.68,15.22,0,30.64,1.28,45.57-.84,6.18-.88,11.31-9.15,16.91-14.06-5.54-4.05-10.62-10.39-16.72-11.62C824.23,542,813.79,543.45,803.64,543.45Z" transform="translate(-8.89 -62.54)"/><path class="cls-2" d="M942.27,307.69l-818.94,0-48.84-.14c-1.15-8.4-3.37-16.82-3.24-25.19.37-24.06,1.7-48.11,2.65-72.16l50-.39,109.15.08,536.11-.1,109.19.09,86.17-.27c30.46,1,30.46,1,30.46,31.6,0,16.23-.71,32.49.22,48.66.79,13.75-5.3,18-17.93,17.56C965.6,307,953.93,307.55,942.27,307.69Z" transform="translate(-8.89 -62.54)"/><path class="cls-2" d="M123.06,797.12l819.53,0c27.89,2.2,40,15.14,40.08,43.08.07,17.68,0,35.37,0,55.08H83.49c-.06-16.19.8-32.45-.42-48.55-1.53-20,5.29-35.39,21.57-46.82Z" transform="translate(-8.89 -62.54)"/><path class="cls-3" d="M769.13,209.76l-536.11.1.57-64.26,534.86.15Q768.79,177.76,769.13,209.76Z" transform="translate(-8.89 -62.54)"/><path class="cls-4" d="M123.06,797.12l-18.42,2.82-42.93-2.86q.2-244.68.37-489.36c.94,0,1.89.07,2.83.06H68l6.48-.25,48.84.14-.33,38.1c-6.34,1-16.88.24-18.15,3.32-2.75,6.66-2.64,16.09.16,22.75,1.28,3,11.74,2.2,18,3.12q0,9.63,0,19.27c-15.7-4.25-21.15-.76-21.19,14.69q-.26,99.63,0,199.24c0,15.52,5.93,19.18,21.19,14.33Z" transform="translate(-8.89 -62.54)"/><path class="cls-5" d="M233.59,145.6,233,209.86l-109.16-.08q-.35-32-.68-64c.21-8.63,1.09-17.3.5-25.88-1-15.08,5.38-22,20.43-20.87l68.15,0c20.2,1,20.8,1.71,20.9,22.41C233.2,129.48,233.44,137.54,233.59,145.6Z" transform="translate(-8.89 -62.54)"/><path class="cls-5" d="M769.13,209.76q-.35-32-.68-64c.21-8.47.51-16.94.6-25.41.2-18.76,1.54-20.21,20.37-21.33h68.09c20,1.07,20.81,2,20.93,22.46,0,8,.29,16.1.44,24.15q-.27,32.12-.56,64.24Z" transform="translate(-8.89 -62.54)"/><path class="cls-6" d="M61.71,797.08l42.93,2.86c-16.28,11.43-23.1,26.77-21.57,46.82,1.22,16.1.36,32.36.42,48.55-18.59.63-37.18,1.62-55.76,1.48-2.46,0-6.95-5.82-7-8.95-.06-20.74-.16-41.59,1.76-62.21C24.14,808.43,39.74,798.15,61.71,797.08Z" transform="translate(-8.89 -62.54)"/><path class="cls-6" d="M74.49,307.52l-6.48.25h-3.1c-.94,0-1.89,0-2.83-.06-12.63-.15-25.29-.75-37.9-.31-11.27.4-15.28-4.51-15.06-15.4.43-21.23.94-42.52-.16-63.7-.77-14.88,4.65-20.45,19.1-18.51,3.94.53,8.06-.23,12.1-.39l33.74.76c-1,24.05-2.28,48.1-2.65,72.16C71.12,290.7,73.34,299.12,74.49,307.52Z" transform="translate(-8.89 -62.54)"/><path class="cls-3" d="M878.32,209.85q.28-32.11.56-64.24c17.24,0,34.49,0,51.73.18,23.15.31,33.41,10.62,33.62,33.38q.13,15.21.26,30.42Z" transform="translate(-8.89 -62.54)"/><path class="cls-3" d="M73.9,210.17l-33.74-.76c.07-10.67.07-21.35.23-32,.29-20.11,10.64-31,30.94-31.52,17.27-.47,34.56-.09,51.85-.09q.33,32,.68,64Z" transform="translate(-8.89 -62.54)"/><path class="cls-7" d="M857.51,99H789.42c.15-5.05.21-10.1.47-15.15.69-13.78,7.14-21.72,21.78-21.3,3,.08,6.06,0,9.09,0C856.88,62.51,857,62.61,857.51,99Z" transform="translate(-8.89 -62.54)"/><path class="cls-8" d="M501.53,702.77q-96.24,0-192.48,0c-20.45,0-21-.49-21-20.23q0-130.6,0-261.22c0-20.18,1.69-21.88,21.73-21.89q192.49,0,385,0c20,0,21.73,1.72,21.74,21.89q0,130.62,0,261.23c0,19.73-.52,20.21-21,20.22Q598.54,702.79,501.53,702.77Zm.54-65,2.53.42c13.83-45.08,27.65-90.16,42.88-139.81L501,520.22c8.52-28.67,15.9-53.53,24-80.75-11.47,0-20,.59-28.52-.14C484.43,438.27,477,441,477,455.22c0,8-2.45,16-3.76,23.95-5.29,32.2-10.56,64.39-16.39,100l45.23-21.55Z" transform="translate(-8.89 -62.54)"/><polygon class="cls-4" points="114.13 331.68 114.13 559.94 114.44 566.88 91.48 566.88 91.48 331.68 106.09 326.5 114.13 331.68"/><polygon class="cls-4" points="114.15 312.4 86.61 312.4 86.61 280.34 114.11 283.22 114.15 312.4"/><polygon class="cls-1" points="114.13 559.94 114.13 331.68 123.58 350.31 123.58 553 114.13 559.94"/><rect class="cls-1" x="137.65" y="441.55" width="107.92" height="103.15"/><line class="cls-9" x1="198.61" y1="447.43" x2="198.61" y2="529.67"/><line class="cls-9" x1="239.73" y1="488.55" x2="157.49" y2="488.55"/><polygon class="cls-1" points="738.51 463.19 738.51 522.34 866.9 522.34 866.9 466.8 738.51 463.19"/><line class="cls-9" x1="855.69" y1="488.55" x2="773.45" y2="488.55"/><path class="cls-8" d="M435.07,426.91c2.16,4.33,0,226.5,0,226.5H559.14V424.75Z" transform="translate(-8.89 -62.54)"/><polygon class="cls-10" points="474.42 387.99 453.59 500.79 493.35 485.91 493.35 585.18 539.34 436.95 491.19 456.97 506.61 386.64 474.42 387.99"/><path class="cls-7" d="M212.05,99,144,99c.15-5.06.22-10.11.47-15.15.69-13.78,7.14-21.73,21.78-21.31,3,.09,6.07,0,9.1,0C211.42,62.52,211.52,62.62,212.05,99Z" transform="translate(-8.89 -62.54)"/></svg>