<svg id="Layer_1" data-name="Layer 1" xmlns="http://www.w3.org/2000/svg" xmlns:xlink="http://www.w3.org/1999/xlink" viewBox="0 0 973.52 642.84"><defs><style>.cls-1{fill:none;}.cls-2{fill:#ce3a46;}.cls-3{fill:#465e74;}.cls-4{fill:#374f68;}.cls-5{fill:#425b72;}.cls-6{fill:#ad2f39;}.cls-7{fill:#de8761;}.cls-8{fill:#dd8762;}.cls-9{fill:#ef9d78;}.cls-10{fill:#f19a75;}.cls-11{fill:#f19b74;}.cls-12{fill:#fedc79;}.cls-13{fill:#c28c77;}.cls-14{fill:#3c5168;}.cls-15{fill:#395069;}.cls-16{fill:#ede6ea;}.cls-17{fill:#c2836a;}.cls-18{fill:#fedd76;}.cls-19{fill:#fecb66;}.cls-20{fill:#455e74;}.cls-21{fill:#435b72;}.cls-22{fill:#fedd77;}.cls-23{clip-path:url(#clip-path);}.cls-24{fill:#4d6277;}.cls-25{clip-path:url(#clip-path-2);}</style><clipPath id="clip-path" transform="translate(-13.24 -136.78)"><ellipse class="cls-1" cx="219.32" cy="646.89" rx="84.33" ry="84.8"/></clipPath><clipPath id="clip-path-2" transform="translate(-13.24 -136.78)"><ellipse class="cls-1" cx="635.3" cy="648.14" rx="84.33" ry="84.8"/></clipPath></defs><path class="cls-2" d="M612.73,538.41l62.82,32c.6,1.34,1.19,2.68,1.78,4-1,28.22-2.05,56.43-3.19,87.9-12.71-13.2-21.27-25.89-33.11-33.37-12.51-7.9-27.94-14.07-42.48-15-13.88-.92-28.28,5.82-42.44,9.19l-34.37,30.33-270.82-.08c-2.59-3.44-5.08-6.94-7.76-10.3-24.67-30.9-71-39.3-103-18.7l-32.2,29c-33-6-51.39-27.55-51.41-60.53,0-41.32.15-82.63-.18-123.95,0-5.29-2.58-10.56-4-15.84l23.52-5.58,41.41-.26,103.86.91v82.26c4.82.36,8.09.83,11.37.83q71.34.08,142.68,0c3.71,0,7.42-1.18,11.13-1.8l123.93.06,6.3.83,53.58.08,23.73.22Zm-496,13.09v.09c7.21,0,14.53.79,21.61-.18,11.67-1.59,19.68-7.8,19.77-20.72s-7.78-19.9-19.46-20.88a256.81,256.81,0,0,0-43.23.05c-11,.94-18.62,7.57-19,19.81-.43,12.93,7.11,19.64,18.74,21.62C102.1,552.47,109.48,551.5,116.69,551.5Z" transform="translate(-13.24 -136.78)"/><path class="cls-3" d="M117.31,447.15l-41.41.26c0-73.67-.25-147.34,0-221,.18-55.84,34.38-89.52,90.49-89.56q161.79-.12,323.57,0c52.06,0,84.19,29.6,89.95,81.74C591,319,602.34,419.41,613.4,519.84c.67,6.09-.4,12.37-.66,18.56l-18.85-7.9c-.95-8-2.79-16.12-2.62-24.15.22-10.59-3.23-16.8-13.87-20.25-15.83-5.13-23.85-17.33-23.9-33.63-.09-29.37,0-58.73,0-88.1-5.31-49.21-10-98.5-16.16-147.6C534.09,191.14,519,179,493,179q-165.23-.25-330.47,0c-29.24.05-45.18,16.46-45.22,46Q117.12,336,117.31,447.15Z" transform="translate(-13.24 -136.78)"/><path class="cls-4" d="M677.33,574.38c-.59-1.34-1.18-2.68-1.78-4q.29-114,.58-228.11c.06-28.4,0-56.8,0-85.2v-16.2h42q0,185.85.07,371.69c0,24.36,15.49,40.11,40,40.85q.46,10.08.94,20.17l.4,2.86v19.3h163c1.28-7.12,2.45-13.55,3.61-20,12.48,0,25-.2,37.43.09,14.34.34,23.06,8.07,23.25,20s-8.87,20.89-22.53,20.94c-67.67.21-135.34,0-203,.16-14,0-20.33-8.48-24.09-20.53H677.65Q677.5,635.4,677.33,574.38Z" transform="translate(-13.24 -136.78)"/><path class="cls-5" d="M758.12,653.39c-24.46-.74-39.94-16.49-40-40.85q-.07-185.85-.07-371.69h41.41v82.48c-.27,6.7-.77,13.41-.79,20.12Q758.36,498.42,758.12,653.39Z" transform="translate(-13.24 -136.78)"/><path class="cls-6" d="M52.38,453c1.39,5.28,3.93,10.55,4,15.84.33,41.32.15,82.63.18,124,0,33,18.36,54.53,51.41,60.53L96.18,696.42c-19.23,0-38.47.14-57.7-.12-17-.23-24.88-7.8-24.95-24.7-.2-53.86-.62-107.73.18-161.58C14.11,483.34,26.61,463.27,52.38,453Z" transform="translate(-13.24 -136.78)"/><path class="cls-6" d="M250.92,653.31l270.82.08q-5.93,21.5-11.86,43l-247.38,0Z" transform="translate(-13.24 -136.78)"/><path class="cls-7" d="M926.08,675.73c-1.16,6.44-2.33,12.87-3.61,20h-163v-19.3l2-2.86q.07-50.55.13-101.11c1.44,0,2.87,0,4.31,0,32.18-.06,32.18-.06,36.06,32.36,2.76,23.08,25.15,46.47,48.17,48.33,24.69,2,49.51,2.36,74.27,3.43Q925.23,666.14,926.08,675.73Z" transform="translate(-13.24 -136.78)"/><path class="cls-7" d="M924.35,532.27q-.09,18.47-.17,36.94c-6.14.12-12.29.06-18.42.4-14.39.8-28.78,1.78-43.16,2.69l-40.44-.17-60.58-2.59q0-60.69.08-121.39l40.27.1c0,7.2.84,14.53-.18,21.59-4,28.09,25.7,59.64,53.8,59.55C878.48,529.33,901.41,531.24,924.35,532.27Z" transform="translate(-13.24 -136.78)"/><path class="cls-8" d="M761.63,324l40.26.15c0,7.2.89,14.53-.14,21.58-4,27.73,25.48,59.54,53.84,59.45,22.92-.06,45.85,1.84,68.77,2.87q-.12,18.5-.23,37l-61.52.38H822.17l-20.23.05-40.29-.07Q761.65,384.68,761.63,324Z" transform="translate(-13.24 -136.78)"/><path class="cls-9" d="M862.6,572.3c14.38-.91,28.77-1.89,43.16-2.69,6.13-.34,12.28-.28,18.42-.4q.11,43.66.22,87.33c-24.77-1.07-49.59-1.43-74.28-3.43-23-1.86-45.41-25.25-48.17-48.33-3.88-32.42-3.88-32.42-36.06-32.36-1.44,0-2.87,0-4.31,0v-2.91l60.58,2.59c0,13-.25,26,0,39,.26,15,7.27,22.38,20.52,22.08,11.1-.26,19.67-9.44,19.9-21.91C862.79,598.27,862.6,585.29,862.6,572.3Z" transform="translate(-13.24 -136.78)"/><path class="cls-10" d="M801.94,445.45l20.23-.05c0,.92,0,1.85,0,2.78,0,13.47-.22,26.94,0,40.41.17,12.6,6.58,19.75,19.39,20.3s20.55-6.58,21-20.16.08-26.94.06-40.41c0-1,0-1.94.05-2.92l61.52-.38q.12,43.62.22,87.25c-22.94-1-45.87-2.94-68.8-2.88-28.1.09-57.85-31.46-53.8-59.55,1-7.06.17-14.39.18-21.59C801.94,447.31,801.94,446.38,801.94,445.45Z" transform="translate(-13.24 -136.78)"/><path class="cls-11" d="M924.36,408c-22.92-1-45.85-2.93-68.77-2.87-28.36.09-57.89-31.72-53.84-59.45,1-7,.14-14.38.14-21.58l20.25-.37c0,13.39-.33,26.79,0,40.18.36,13.83,7.45,20.8,20.2,20.75s19.82-7,20.17-20.83c.35-13.38.05-26.78,0-40.18h61.81Z" transform="translate(-13.24 -136.78)"/><path class="cls-12" d="M862.55,323.68c0,13.4.32,26.8,0,40.18-.35,13.81-7.42,20.79-20.17,20.83s-19.84-6.92-20.2-20.75c-.34-13.39,0-26.79,0-40.18Z" transform="translate(-13.24 -136.78)"/><path class="cls-13" d="M761.58,569.54v2.91q-.06,50.55-.13,101.11h-2.39q-.48-10.08-.94-20.17.28-155,.6-309.94c0-6.71.52-13.42.79-20.12a2.32,2.32,0,0,1,2.12.65q0,60.7,0,121.4a19.7,19.7,0,0,0,0,2.77Q761.62,508.86,761.58,569.54Z" transform="translate(-13.24 -136.78)"/><path class="cls-14" d="M385.66,488.67l.69,40.62c-3.71.63-7.42,1.8-11.13,1.81q-71.34.18-142.68,0c-3.28,0-6.55-.47-11.37-.83V448.06l-.23,0,40.66.59c1.63,24.08,21.66,42.11,48,40.4C334.83,487.36,360.29,488.67,385.66,488.67Z" transform="translate(-13.24 -136.78)"/><path class="cls-15" d="M531.06,364.12l22.4.25c0,29.37-.05,58.73,0,88.1,0,16.3,8.07,28.5,23.9,33.63,10.64,3.45,14.09,9.66,13.87,20.25-.17,8,1.67,16.1,2.62,24.15l-23.73-.22-53.58-.09-6.3-.83q-.21-72-.43-144.06C510.94,361.07,507.21,365.31,531.06,364.12Z" transform="translate(-13.24 -136.78)"/><path class="cls-16" d="M116.69,551.5c-7.21,0-14.59,1-21.6-.21-11.63-2-19.17-8.69-18.74-21.62.41-12.24,8.06-18.87,19-19.81a256.81,256.81,0,0,1,43.23-.05c11.68,1,19.55,8,19.46,20.88s-8.1,19.13-19.77,20.72c-7.08,1-14.4.18-21.61.18Z" transform="translate(-13.24 -136.78)"/><path class="cls-3" d="M516.58,530.19l53.58.09Z" transform="translate(-13.24 -136.78)"/><path class="cls-17" d="M759.06,673.56h2.39l-2,2.86C759.33,675.47,759.19,674.51,759.06,673.56Z" transform="translate(-13.24 -136.78)"/><path class="cls-18" d="M862.6,572.3c0,13,.19,26-.05,39-.23,12.47-8.8,21.65-19.9,21.91-13.25.3-20.26-7-20.52-22.08-.22-13,0-26,0-39Z" transform="translate(-13.24 -136.78)"/><path class="cls-9" d="M761.66,448.15a19.7,19.7,0,0,1,0-2.77l40.29.07c0,.93,0,1.86,0,2.8Z" transform="translate(-13.24 -136.78)"/><path class="cls-9" d="M862.61,445.4c0,1,0,2,0,2.92l-40.41-.14c0-.93,0-1.86,0-2.78Z" transform="translate(-13.24 -136.78)"/><path class="cls-18" d="M822.16,448.18l40.41.14c0,13.47.37,26.95-.07,40.41s-8.09,20.72-21,20.16-19.22-7.7-19.39-20.3C821.94,475.12,822.13,461.65,822.16,448.18Z" transform="translate(-13.24 -136.78)"/><path class="cls-19" d="M261.6,448.61,220.94,448V281.7l40.75,4.62c0,27.23-.23,54.46.06,81.68.23,21.88,14.61,36.07,36.69,37q2.22,21.09,4.44,42.19Z" transform="translate(-13.24 -136.78)"/><path class="cls-20" d="M531.06,364.12c-23.85,1.19-20.12-3.05-21.21,21.18-8.86-6-18.17-11.51-26.42-18.29-4.67-3.84-7.6-9.81-11.75-15.4-4.69,3.81-6.38,5.24-8.14,6.6-11.28,8.7-22.74,8.54-30.62-.41s-7-20.11,3.26-30.63c11-11.34,22.3-22.45,33.52-33.6,13-12.88,23.95-14.91,33.79-6.34,10,8.74,9,20.39-2.44,34.4Z" transform="translate(-13.24 -136.78)"/><path class="cls-21" d="M261.6,448.61l41.28-1.42c15.26.29,30.55,0,45.75,1,22.5,1.48,36.89,17.68,37,40.48-25.37,0-50.83-1.31-76.09.34C283.26,490.72,263.23,472.69,261.6,448.61Z" transform="translate(-13.24 -136.78)"/><path class="cls-22" d="M298.44,405c-22.08-.93-36.46-15.12-36.69-37-.29-27.22-.06-54.45-.06-81.68,17.37,3,23.11,16.58,25.42,30.91C291.81,346.34,294.77,375.73,298.44,405Z" transform="translate(-13.24 -136.78)"/><path class="cls-15" d="M262.52,693.57c0,46.83-37.75,84.8-84.33,84.8s-84.32-38-84.32-84.8,37.75-84.8,84.32-84.8S262.52,646.73,262.52,693.57Zm-84.33-22.09a22.09,22.09,0,1,0,22.09,22.09A22.09,22.09,0,0,0,178.19,671.48Z" transform="translate(-13.24 -136.78)"/><g class="cls-23"><path class="cls-24" d="M262.49,693.57c0,46.84-37.75,84.8-84.32,84.8s-84.33-38-84.33-84.8,37.75-84.79,84.33-84.79S262.49,646.74,262.49,693.57Zm-84.32-22.09a22.1,22.1,0,1,0,22.09,22.09A22.09,22.09,0,0,0,178.17,671.48Z" transform="translate(-13.24 -136.78)"/></g><path class="cls-15" d="M678.51,694.82c0,46.83-37.76,84.8-84.33,84.8s-84.33-38-84.33-84.8S547.61,610,594.18,610,678.51,648,678.51,694.82Zm-84.33-22.1a22.1,22.1,0,1,0,22.09,22.1A22.09,22.09,0,0,0,594.18,672.72Z" transform="translate(-13.24 -136.78)"/><g class="cls-25"><path class="cls-24" d="M678.48,694.82c0,46.84-37.75,84.8-84.33,84.8s-84.32-38-84.32-84.8S547.58,610,594.15,610,678.48,648,678.48,694.82Zm-84.33-22.09a22.09,22.09,0,1,0,22.1,22.09A22.09,22.09,0,0,0,594.15,672.73Z" transform="translate(-13.24 -136.78)"/></g></svg>