<svg id="Layer_1" data-name="Layer 1" xmlns="http://www.w3.org/2000/svg" viewBox="0 0 995.45 602.36"><defs><style>.cls-1{fill:#fff;}.cls-2{fill:#f6d33c;}</style></defs><path class="cls-1" d="M2.3,685.06c0-1.95,0-3.9,0-5.85V327.3c0-3.23,0-6.45,0-9.68.68-6.13,1.06-12.3,2.1-18.37,3.61-21.15,12-40.1,26.47-56.16a113,113,0,0,1,32.9-25,164.78,164.78,0,0,1,44.1-14.79c19.53-3.81,39.28-4.89,59.12-4.36a242.69,242.69,0,0,1,37.93,3.9c19,3.53,37.13,9.41,53.77,19.44,22.12,13.32,38,31.91,47.07,56.14a124,124,0,0,1,6.91,29.11,192.93,192.93,0,0,1,1.17,22.54q0,58.86,0,117.72v2.58H190.42v-2.64q0-58.19,0-116.37c0-8.1-2.13-15.44-7.44-21.72-11.33-13.4-31.56-14.77-43.88-3.1a30.41,30.41,0,0,0-9.7,21.89c0,.45,0,.91,0,1.36q0,169.33,0,338.69c0,5.9.94,11.53,3.77,16.76a29.39,29.39,0,0,0,32.83,15,31.19,31.19,0,0,0,24.43-30.47c.07-5.64,0-11.29,0-16.94V550h123.4a8.57,8.57,0,0,1,.13,1.08c0,30.43.06,60.86-.09,91.29A83.92,83.92,0,0,1,308,673.66a65.78,65.78,0,0,1-17.55,25.13c-6.38,5.62-13,11-19.63,16.3Q223,753.87,175.17,792.56c-3.1,2.51-6.22,5-9.29,7.55a4.17,4.17,0,0,1-2.87,1c-13.18,0-26.37.27-39.55-.08C90.13,800.14,61,788.85,37,765.33a114.41,114.41,0,0,1-30.37-52A124.59,124.59,0,0,1,2.3,685.06Z" transform="translate(-2.28 -198.82)"/><path class="cls-1" d="M912.11,800.32h-2c-10.92,0-21.84,0-32.77,0a4.65,4.65,0,0,1-3.23-1.19q-35-29.4-70.13-58.75Q790.31,729,776.6,717.53a5.27,5.27,0,0,1-2.16-4.52q.09-192.35,0-384.67v-2.87H689.34V210.84c1.56-.45,303.52-.67,308.38-.19V325.27H912.65c-.24.25-.29.31-.34.37s-.12.11-.13.17a3.81,3.81,0,0,0-.07.67Z" transform="translate(-2.28 -198.82)"/><path class="cls-1" d="M443,211.12H615q54.47,231,109,462.42L529.28,510.36,343,660.64C342.59,659,442.12,214.19,443,211.12Zm53,270.35h66.35q-16.46-84.63-32.84-169h-.4Q512.53,396.9,496,481.47Z" transform="translate(-2.28 -198.82)"/><path class="cls-2" d="M829.72,801.1H218.49a.88.88,0,0,1-.1-.26.26.26,0,0,1,.07-.19L529.18,549.39Z" transform="translate(-2.28 -198.82)"/></svg>