<svg id="Layer_1" data-name="Layer 1" xmlns="http://www.w3.org/2000/svg" viewBox="0 0 983.5 144.32"><defs><style>.cls-1{fill:#fff;}.cls-2{fill:#e30613;}</style></defs><path class="cls-1" d="M103,536.77A50.84,50.84,0,0,0,100.53,550c0,13.53,10.41,22.2,32.26,22.2,28.8,0,39.9-10.41,46.14-32.61l18.74-64.18H171l-18.73,63.48c-2.08,6.94-6.25,10.06-14.57,10.06-7.63,0-10.41-3.81-8.67-10.4L147.71,475H121Zm360.44,34h63.14l6.59-22.55H496.7l4.17-14.57h32.26l6.24-21.85H507.46L512,496.88h36.42l6.25-21.51H491.5ZM876.92,474c-26,0-45.44,3.12-58.28,51.34-2.08,8.33-3.47,15.62-3.47,21.86,0,15.26,8.33,25,34.69,25,6.59,0,15.27-1,21.16-3.12l6.6-22.21a81.57,81.57,0,0,1-18,1.74c-12.15,0-15.27-3.82-15.27-10.06,0-3.82,1-8,2.43-12.84,6.59-25.67,13.88-28.45,27.06-28.45,11.1,0,17.34,1.74,17.34,1.74l6.94-22.9C893.57,475.37,883.51,474,876.92,474ZM12.76,570.08c3.82,1,13.18,2.08,20.82,2.08,34,0,47.87-9.37,55.5-35.39l18.39-61.4H80.76l-16,54.81c-1,1.74-2.08,5.21-3.47,8-4.51,8-13.18,10.06-23.25,10.06a132.77,132.77,0,0,1-18.73-1.39Zm664.69.69h26.36l9.37-31.92h7.28l8,31.92h28.8l-10.76-36.43c8-2.42,17.35-5.2,23.59-26.36a54.47,54.47,0,0,0,2.43-14.57c0-11.45-6.94-18.39-23.94-18.39h-43Zm41.63-52,6.24-21.51h12.14c4.51,0,6.94,2.43,6.94,6.25,0,9-4.51,15.26-13.53,15.26Zm-350.73-3.12H332.61l-5.2,17.69h11.45l-4.51,15.27a52.48,52.48,0,0,1-8.33.69c-9.71,0-11.1-4.16-11.1-10.41,0-3.81,1-8.32,2.08-13.18,6.59-25.67,14.23-28.79,27.41-28.79A109.42,109.42,0,0,1,369,499.65l6.94-22.2c-3.82-1.39-16-3.47-28.1-3.47-26,0-45.45,2.78-58.28,51a89.47,89.47,0,0,0-3.13,21.85c0,15.27,9,25.33,35,25.33,12.49,0,25.67-2.08,31.92-4.17Zm200.51-40.24h26.71l-28.1,95.4H540.76Zm-355.58,0h22.55l13.87,51h.35s2.08-8.33,4.16-15.27l10.41-35.38H291l-28.1,95.4H240.34l-14.23-50.31h-.35s-2.08,7.64-4.16,15.62l-10.41,34.69H184.83Zm398.25,0h22.55l13.88,51h.35s2.08-8.33,4.16-15.27l10.41-35.38h26.36l-28.1,95.4H638.59l-14.22-50.31H624s-2.08,7.64-4.16,15.62l-10.41,34.69H583.09Zm181.79,0H820l-28.1,95.4H764.87Zm-397.91,0h26.71L411,512.49h26l11.1-37.12h26.71l-28.1,95.4H420l10.75-36.43H404.43l-10.76,36.43H367Zm516.55,0h26.71l-11.1,37.12h26.37L965,475.37h26.71l-28.45,95.4H936.59l10.75-36.43h-26l-10.76,36.43H883.51Z" transform="translate(-8.25 -427.84)"/><path class="cls-2" d="M110.94,467l-40.59-39.2L8.25,467h35L22.13,538.16a124.33,124.33,0,0,0,16.65,1c7.63,0,12.14-2.43,14.22-5.9a29.11,29.11,0,0,0,2.43-6.24l18-60.36h37.47Z" transform="translate(-8.25 -427.84)"/></svg>