<svg id="Layer_1" data-name="Layer 1" xmlns="http://www.w3.org/2000/svg" viewBox="0 0 956.98 323.14"><defs><style>.cls-1{fill:#fff;}</style></defs><path class="cls-1" d="M653.59,411c-1.35-3.09-1-4.83,1.85-6.57,9.34-5.64,12.34-19.61,6.81-30.88s-15.15-17.74-26.62-21.23c-33.92-10.32-65.08-5-92.35,18.22a328.69,328.69,0,0,0-25.71,24.93c-19.78,20.95-37.69,43.75-62.15,61.28,8.56,1.77,16.18,3.59,23.88,4.88,24.21,4,48.37,8.57,72.71,11.63,23.64,3,47.45,3.19,70.89-2.61,11.33-2.8,21.79-7.43,30.71-15.28,2.87,2.15,2.84,4.28,1,7.13-8.45,13.19-20.73,21.48-34.8,27.51-21.08,9-43.21,9.84-65.66,8.38-39-2.53-76.37-12.78-113.45-24.22-5.28-1.63-9.32-1.34-14.18,1.46-18.58,10.71-38.32,18.68-59.66,21.94-17.34,2.65-34.55,2-51.34-3.54a42.14,42.14,0,0,1-8.7-4.09c-11.94-7.37-13.05-19.57-2.7-29.14,5.64-5.22,12.59-8.1,19.82-10.29,18.24-5.54,37-6.55,55.83-5.21,11.91.85,23.73,2.8,35.61,4a6.55,6.55,0,0,0,4.64-2c13.64-14.44,27.09-29.06,40.72-43.52,23.75-25.19,51.45-44.6,84.39-55.87,40.6-13.91,81.2-13.66,121.24,2.13a61.88,61.88,0,0,1,19.35,12.63C699.84,376,697,394.55,680,404.18,671.85,408.79,663,410.42,653.59,411ZM402.93,463.7a8,8,0,0,0-1.67-.84c-13.84-2.49-27.63-5.4-41.56-7.27-9.34-1.26-18.81-.49-27.42,4.25-5.65,3.11-9.6,7.51-9.15,14.38.47,7.1,5.21,10.93,11.43,13.06a46.1,46.1,0,0,0,23.87,1.45C375.94,485.36,389.57,475,402.93,463.7Z" transform="translate(-21.2 -337.75)"/><path class="cls-1" d="M789,660.89c-14.81-.33-25-6.91-30.58-19.85-6.2-14.31-6.2-29-.58-43.43,5.29-13.6,16.48-20.85,30.89-20.86s25.61,7.25,30.91,20.82c5.65,14.45,5.63,29.11-.55,43.43C813.34,654.31,802.85,660.77,789,660.89Zm19.92-42.28c-1.45-6.15-2.29-12.16-4.33-17.72-2.59-7.07-8.27-10.8-15.91-10.78-7.46,0-12.91,3.72-15.71,10.55a45.58,45.58,0,0,0,.18,36.35c2.8,6.56,8.11,10.21,15.49,10.24,7.54,0,13.12-3.57,15.71-10.42C806.54,631.05,807.43,624.77,808.92,618.61Z" transform="translate(-21.2 -337.75)"/><path class="cls-1" d="M435,618.68c0-10.73-.08-21.45.1-32.17a5.15,5.15,0,0,1,2.2-3.91c11.05-5.14,22.62-6.59,34.49-3.6,12.2,3.08,19.94,11.15,23.74,22.92a54.44,54.44,0,0,1,.55,31.7c-5.18,18.86-21.8,29.07-42.31,25.84-5.24-.82-10.33-2.66-15.48-4.07-2.52-.68-3.43-2.16-3.37-4.95C435.09,639.85,435,629.26,435,618.68Zm15.62-.33c0,8-.08,16.08.09,24.11,0,1.25,1,3.34,1.92,3.58,10.25,2.69,22.55,1.35,27.52-12.55a44.67,44.67,0,0,0,1.09-25.73c-3.18-13.46-12.75-19.59-26.33-17.1-3,.56-4.55,1.62-4.39,5.19C450.82,603.34,450.58,610.85,450.58,618.35Z" transform="translate(-21.2 -337.75)"/><path class="cls-1" d="M103.85,624.52v33.71H88.4V579.45h15.32v32h29.14V579.39h15.52v78.87H133.12V624.52Z" transform="translate(-21.2 -337.75)"/><path class="cls-1" d="M723.83,625.65l19.31,32.84c-6.18,0-11.75,0-17.32-.06a2.68,2.68,0,0,1-1.76-1.37c-6.67-12.35-13.28-24.73-20-37.36,3.35-.65,6.41-1,9.31-1.85,7.58-2.3,11.53-7.55,11.39-14.65-.16-7.51-4.72-12.58-12.19-13.55-.8-.1-1.6-.2-2.41-.24-11.16-.51-12.27.52-12.27,11.45v57.4H682.61V642.52c0-18.52.07-37-.08-55.56,0-2.77.88-4.11,3.33-5,11.32-4.28,22.93-5.81,34.79-3.11,11.19,2.55,18.13,10.28,19.23,20.58,1.23,11.45-3.67,20.09-14.39,25.38C725,625,724.54,625.28,723.83,625.65Z" transform="translate(-21.2 -337.75)"/><path class="cls-1" d="M663.08,583.89c-1.81,4-3.42,7.63-4.67,10.43-5.84-1.46-11.16-3.43-16.63-4-12.18-1.35-21.62,5.25-24.84,17a40.68,40.68,0,0,0,1,25.7c4.92,12.9,16.21,16.75,28.89,13.5.92-.23,2-2,2.06-3,.2-5.89.09-11.8.09-18H634.6v-12h29a29.25,29.25,0,0,1,.28,3c0,11.41-.07,22.81.08,34.21,0,2.56-.84,3.95-3.08,4.9-13.19,5.55-26.56,6.39-39.91.88-8.31-3.44-14.08-9.74-17.43-18.05a50.52,50.52,0,0,1-.39-38c4.68-12.21,13.81-19.5,26.69-21.94a47.76,47.76,0,0,1,25.41,1.76C657.88,581.12,660.29,582.55,663.08,583.89Z" transform="translate(-21.2 -337.75)"/><path class="cls-1" d="M356.82,658.22V644.39c0-19,.05-38.1-.07-57.15,0-2.65.61-4,3.26-5,12-4.25,24.24-6,36.81-3.89,12,2,18.44,9,18.68,21.06.39,19.31.12,38.63.11,57.94,0,.24-.2.47-.4.9h-15.1v-4.42c0-15.83,0-31.66,0-47.49,0-12.87-3.57-16.37-16.4-15.74-3.82.19-7.58,1.28-11.47,2v65.59Z" transform="translate(-21.2 -337.75)"/><path class="cls-1" d="M840,579.26H855.4v4.34c0,15.83,0,31.67,0,47.5,0,10.91,6.58,16.6,17.36,15.24,7.78-1,12.22-6,12.26-14.3.08-16.64,0-33.29,0-49.93v-2.66h15.27c.06.94.19,2.09.19,3.24q0,24,0,47.9c0,13.64-5.65,22.61-16.85,27-12.65,5-28.16,2.32-36.48-6.26a23.61,23.61,0,0,1-7.09-16.23C839.84,616.64,840,598.14,840,579.26Z" transform="translate(-21.2 -337.75)"/><path class="cls-1" d="M935.25,628.4v29.91h-15.2c-.06-1.24-.16-2.29-.16-3.33q0-34,0-68c0-1.87-.21-3.55,2.17-4.53,12.83-5.28,25.9-6.88,39.26-2.49,10.78,3.54,16.45,11.39,16.85,22.46.38,10.49-4.92,19.25-15.54,22.87-6.58,2.24-13.84,2.53-20.83,3.49C939.85,629.07,937.81,628.58,935.25,628.4Zm.15-12.27c8.52,1.18,15.19.67,19.79-1.43,5.25-2.39,7.66-6.48,7.38-12.56-.24-5.5-3-9.36-8.3-11.08-6.33-2.06-12.61-1.56-18.87.61Z" transform="translate(-21.2 -337.75)"/><path class="cls-1" d="M530,623.48v22.39h32.29v12.47H514.6v-79h46.93v11.9h-31.3v19.87h27.06v12.33Z" transform="translate(-21.2 -337.75)"/><path class="cls-1" d="M170,579.32H216.9v11.93H185.35V611h26.93v12.4H185.34v22.52h32.09v12.35H170Z" transform="translate(-21.2 -337.75)"/><path class="cls-1" d="M21.2,579.31H76.31v13H56.8v66H41V592.66H21.2Z" transform="translate(-21.2 -337.75)"/><path class="cls-1" d="M279.54,645.25h28.28v13H264.38v-79h15.16Z" transform="translate(-21.2 -337.75)"/><path class="cls-1" d="M320.82,579.31h14.84v79H320.82Z" transform="translate(-21.2 -337.75)"/></svg>