<svg id="Layer_1" data-name="Layer 1" xmlns="http://www.w3.org/2000/svg" viewBox="0 0 975.19 148.73"><defs><style>.cls-1{fill:#e10815;}.cls-2{fill:#e10915;}.cls-3{fill:#e10916;}.cls-4{fill:#e20b18;}.cls-5{fill:#e20c19;}</style></defs><path class="cls-1" d="M766.24,466H737.72c-5,33.8-10,67.58-15,101.54H679c4.95-33.79,9.87-67.32,14.91-101.62H671.06c1.82-11.91,3.51-23,5.32-34.86h5.9q70.92-.18,141.84-.3a93.92,93.92,0,0,1,17.43,1.32c17.5,3.32,28.63,18.82,26.27,37q-3.77,29.07-8.62,58c-3.65,22-19.36,37.77-41.49,41-9.2,1.35-18.89,2.21-28,.89-25.91-3.77-34.86-22.69-31.9-47.06C760.07,503.29,763.37,484.82,766.24,466Zm58.35,7c-.86-1.49-1.77-5.25-3.93-6.22-2.4-1.07-6.46-.46-8.83,1-2,1.22-3.2,4.59-3.69,7.21-1.77,9.39-3.12,18.87-4.56,28.33-1.1,7.23-2.58,14.46-2.89,21.74-.12,2.73,1.88,6.74,4.15,8.1,3.47,2.08,7.33.12,9.8-3.2a11,11,0,0,0,2-4.61C819.25,508.51,821.77,491.62,824.59,473Z" transform="translate(-11.98 -426.41)"/><path class="cls-2" d="M338.88,564.53H299.14c4.38-28,8.72-55.87,13.06-83.7l-1.22-.27c-3.84,12-7.73,23.9-11.51,35.88q-7,22.17-13.79,44.4c-.85,2.76-2,4.15-5.42,4.06-12-.32-24.09-.13-37-.13V477.39l-1.31-.06c-4.39,28.86-8.78,57.72-13.23,87H193.91q10.29-66.62,20.54-133.06h60.3v74.42c8.33-25.79,16.18-50.1,24-74.42h60.6c-1.28,8.94-2.44,17.61-3.78,26.25q-7.8,50.4-15.72,100.78a21.09,21.09,0,0,1-.78,2.65Z" transform="translate(-11.98 -426.41)"/><path class="cls-2" d="M592.76,564.57H539.62q-5.76-37.47-11.55-75.15l-1.32,0-12,75H479.14l21.13-133.11H554q5.21,36.81,10.4,73.54l1.26.19q5.88-36.85,11.78-73.74h36.46C606.85,475.82,599.85,519.93,592.76,564.57Z" transform="translate(-11.98 -426.41)"/><path class="cls-2" d="M883.76,430.91H927c-1.35,9.49-2.6,18.69-4,27.87-3.21,21.36-6.57,42.69-9.62,64.07-.59,4.12-1.41,9.08,4.66,10.46,5.35,1.22,9.63-1.41,10.84-7.87,2.59-13.83,4.63-27.77,6.73-41.69,2.49-16.53,4.81-33.09,7.24-49.64a20.54,20.54,0,0,1,.92-3.05h43.35c-1.11,7.77-2.11,15.1-3.22,22.41-3.56,23.39-7.67,46.7-10.62,70.15-3.22,25.56-18.64,39.92-42.67,44.2-11.26,2-23.3,1.57-34.74.22-20.36-2.42-30.61-16.85-27.62-37.68,4.69-32.73,9.84-65.4,14.81-98.09A6.68,6.68,0,0,1,883.76,430.91Z" transform="translate(-11.98 -426.41)"/><path class="cls-3" d="M338.88,564.53l.21-3.58c1.17-1.55,2.69-2.94,3.46-4.66,18.09-40.36,36.07-80.77,54.24-121.08.79-1.77,3.24-3.93,4.94-4,18.06-.28,36.12-.17,55-.17,4,44.42,7.89,88.69,11.85,133.33H422.17v-20.9c-10.11,0-19.82-.11-29.52.15-1,0-2.41,2-3,3.28-2.54,5.79-4.84,11.7-7.25,17.59Zm80.81-101.86-18.26,46.91h18.26Z" transform="translate(-11.98 -426.41)"/><path class="cls-3" d="M623.24,431.24h42.39c-6.49,44.54-13,88.82-19.43,133.26H603.51C610.1,520,616.64,475.83,623.24,431.24Z" transform="translate(-11.98 -426.41)"/><path class="cls-4" d="M165.91,511.82l-25.51,7.06L137,510.46c-4.36-.2-6.71,1.36-7.52,6.4-1.44,8.81-9.75,15.46-19.13,16.44-10,1.05-17.09-3.51-21.86-14.21h-24L63.22,523c-2.66,7.68-9.65,11.69-17.81,10.23-6.58-1.18-9.68-6.26-9.83-14.68-.07-3.84-1.61-7.63-2.17-11.49-1.36-9.54,8.28-20.62,17.78-20.63,6.78,0,13.58.27,20.33-.16a8.91,8.91,0,0,0,6-3.41c3.45-5.13,6.27-10.68,9.35-16.06a12.55,12.55,0,0,1,2.06-3.33c7.32-6.59,16.15-2.67,24.29-3,5.07-.23,6.16,4.65,7.19,8.77,1.23,4.91,2.53,9.81,3.86,14.69,1.28,4.67,2.63,9.33,4.09,14.47l5.84-.95c-2.89-11.05-5.67-21.68-8.43-32.3-.84-3.24-2.46-6.3,3-7.68,5-1.25,6.1.52,7.15,4.82,3.19,13.14,7,26.13,10.26,39.25,1.06,4.22,2.7,5.64,7.09,4.12s9.07-2.29,13.62-3.38Zm-58.06-38.49c-6.58-1.84-10.58.05-13.11,6.17-2.06,5-5.32,9.5-7.78,14.35-1.94,3.82-4.88,5.43-9,5.39-7.35-.06-14.71.27-22-.11-5-.26-7.68,1.55-8.6,6.86,14,0,27.72,0,41.42-.06a3.63,3.63,0,0,0,2.68-1.31c5-7.85,12.29-11.27,21.81-11.43C111.39,486.45,109.63,480,107.85,473.33Zm9.59,39.13c.07-3.9-2.67-6.4-7-6.37-4.44,0-9,4.16-9,8.48,0,4.06,2.34,6.18,6.35,6.39C112.61,521.2,117.36,516.94,117.44,512.46ZM55.9,519.7c-2.84-1.74-4.74-3.59-5.47-3.21-1.85,1-3.18,2.94-4.72,4.51,1.11,1,2.5,3,3.27,2.8C51,523.23,52.72,521.69,55.9,519.7Z" transform="translate(-11.98 -426.41)"/><path class="cls-5" d="M165.91,511.82l1-9.6c.89-1.37,2.36-2.65,2.57-4.11,4.23-29.42-11.4-59.16-42.51-71.7H183.4c-1.3,9-2.54,18-3.9,27-2.65,17.45-4.7,35-8.17,52.31-8.05,40.19-44.26,69.34-85.22,69.39q-33.88,0-67.79,0H12c2.85-18.38,5.61-36.09,8.35-53.77,2.37,6.23,4,12.9,7.26,18.67,11.73,20.8,28.83,32.67,53.78,32.71,38.37.06,64.89-17.93,81.89-51.36C164.73,518.49,165.06,515,165.91,511.82Z" transform="translate(-11.98 -426.41)"/><path class="cls-4" d="M28.47,473.28c2.21-13.91,4.43-27.82,6.69-42H83.44C59.8,438.34,41.68,452.64,28.47,473.28Z" transform="translate(-11.98 -426.41)"/></svg>