<svg id="Layer_1" data-name="Layer 1" xmlns="http://www.w3.org/2000/svg" viewBox="0 0 979.83 135.74"><defs><style>.cls-1{fill:#d4252c;}.cls-2{fill:#d47470;}.cls-3{fill:#dc2434;}.cls-4{fill:#a14c54;}.cls-5{fill:#98363d;}.cls-6{fill:#c1555e;}.cls-7{fill:#c31d2b;}.cls-8{fill:#c38d91;}.cls-9{fill:#a3302a;}.cls-10{fill:#9d3d44;}.cls-11{fill:#faf6f5;}.cls-12{fill:#db212f;}</style></defs><path class="cls-1" d="M78,438.41l4.19.2a.6.6,0,0,0,.74.05l22.59,6.45c3.92,3.64,7.61,7.58,11.82,10.85a22.2,22.2,0,0,1,8.3,12.64c.58,2.29,2.08,4.35,3.17,6.51,2.64,15.83-1,29.64-13.43,40.42-2.23,1.93-1.46,3.46-.51,5.34q7.31,14.4,14.64,28.8c.44.87,1,1.66,1.87,3,4.14-10.49,8.08-20.33,11.93-30.21q8.55-22,17-44a.28.28,0,0,0,.18-.41c.87-2,1.78-4,2.61-6q6.1-15,12.18-30.07l2.08,2.38c-1.48-5.63,1.58-4.84,4.05-4.85,14,0,28,0,41.93,0a31.42,31.42,0,0,0,4.39-.65l4.38-.31,8,18.51,0,0a23.36,23.36,0,0,0,.74,2.76q11.15,28.4,22.34,56.77c2.22,5.62,4.58,11.18,6.88,16.77l0,0c.36,1.18.65,2.38,1.08,3.53q4.59,12.19,9.24,24.35c-2.89.09-5.78.23-8.66.24q-22.09.14-44.2.2l-7.35-20.1-6.6-18.92-.26-1c-.43-1.12-.87-2.25-1.3-3.38h0l-1.71-4.9-.21-.84-.61-1.63-.25-.91-.48-1.09a.4.4,0,0,0-.17-.54l-1.65-4.85-.28-1-.43-.85h0l-2-6.54-.85.07L202,500a.46.46,0,0,0-.16.6l-.38,1-.32,1.05-.61,1.45-.32,1.54-1.5,4.31a.64.64,0,0,0-.13.74l-.84,2.53c-.26.85-.53,1.69-.79,2.53q-2.53,7.88-5.06,15.75l-.17.15.07.22-1.1,3-.4,1.62c-.33,1.09-.67,2.17-1,3.25l0-.07-.46,1-.35,1.4c-.29.88-.57,1.76-.85,2.64v0l-2.25,6.74-3.63,10-1.48-.11c-1.24-.51-2.48-1.48-3.72-1.48q-43.6-.13-87.23,0a17.7,17.7,0,0,0-3.86.85l-1.86-.09a5.3,5.3,0,0,0-3.15-5.7l0,0-19.2-45.2L74,505.06c11-3.79,13.55-20.22,6.62-26.69l0-.85c-.37-2.55-1.5-4.21-4.42-3.78l.06,0c-.14-.38-.18-.95-.45-1.11-4.85-2.73-10.14-2.85-15.48-2.34-.46.05-.83,1.15-1.24,1.76q0,44.58,0,89.18-21.39.06-42.77.12c-4.61,0-5.55-1-5.55-5.64q0-23.61,0-47.21,0-35,.12-70l1.43,0a18.5,18.5,0,0,0,3.87.84q28.77.09,57.54,0a17.69,17.69,0,0,0,3.52-.7Z" transform="translate(-9.79 -432.53)"/><path class="cls-1" d="M562.79,465.16a.65.65,0,0,0,.44-.64c5.64-6.19,10.55-13.29,17-18.38,15.67-12.27,34.31-14.8,53.57-13.17,23.18,2,41.7,12.44,53.24,32.84,10.61,18.77,11.6,39,4.42,59.18-8.87,24.93-27.6,38.23-53.31,42.25-14.91,2.33-29.53.62-43.8-4.26h0l-10-5h0a7.08,7.08,0,0,0-.86-.87C559.82,541.06,552.43,518,555,490.66,555.82,481.62,559.07,473.32,562.79,465.16Zm83.53,35c-.05-12.33-9.28-21.63-21.4-21.57s-21.24,9.44-21.15,21.8c.09,12.73,9.26,22,21.55,21.85C637.27,522.05,646.38,512.47,646.32,500.13Z" transform="translate(-9.79 -432.53)"/><path class="cls-2" d="M706,561.45l-.33-5.09q0-12,0-24v-6.65c0-1.1,0-2.2,0-3.3q0-8.71,0-17.43V441.12c.27-.88.54-1.77.8-2.65.06,1.65.15,3.3.15,4.95q.06,58.49.09,117l-.06.92A4.69,4.69,0,0,1,706,561.45Z" transform="translate(-9.79 -432.53)"/><path class="cls-3" d="M85.47,560.58a17.7,17.7,0,0,1,3.86-.85q43.62-.08,87.23,0c1.24,0,2.48,1,3.72,1.48q-46.08.06-92.15.09A10.33,10.33,0,0,1,85.47,560.58Z" transform="translate(-9.79 -432.53)"/><path class="cls-4" d="M9.79,438.6l1-.07q-.06,35-.11,70,0,23.61,0,47.21c0,4.67.94,5.64,5.55,5.64q21.37,0,42.77-.12c-.53.39-1,1.12-1.57,1.13-15.64.06-31.28,0-47.65,0Z" transform="translate(-9.79 -432.53)"/><path class="cls-5" d="M85.47,560.58a10.33,10.33,0,0,0,2.66.75q46.08,0,92.15-.09l1.48.11a8.93,8.93,0,0,1-2.81,1q-46.06.07-92.13,0c-1.07,0-2.14-1.18-3.21-1.81Z" transform="translate(-9.79 -432.53)"/><path class="cls-6" d="M105.5,445.11c13.24,5.77,21.22,15.6,23.29,30-1.09-2.16-2.59-4.22-3.17-6.51a22.2,22.2,0,0,0-8.3-12.64C113.11,452.69,109.42,448.75,105.5,445.11Z" transform="translate(-9.79 -432.53)"/><path class="cls-7" d="M12.24,438.57l64.93.15a17.69,17.69,0,0,1-3.52.7q-28.77.06-57.54,0A18.5,18.5,0,0,1,12.24,438.57Z" transform="translate(-9.79 -432.53)"/><path class="cls-7" d="M175.24,441.92c.32-1.06.64-2.13.95-3.19l51.5,0a31.42,31.42,0,0,1-4.39.65c-14,.05-28,0-41.93,0-2.47,0-5.53-.78-4.05,4.85Z" transform="translate(-9.79 -432.53)"/><path class="cls-8" d="M227.69,438.77l-51.5,0a10.85,10.85,0,0,1,3-.88q25.11-.09,50.21,0a12.11,12.11,0,0,1,2.71.64Z" transform="translate(-9.79 -432.53)"/><path class="cls-5" d="M280.3,561.11c-.37.42-.73,1.2-1.09,1.2q-25.22.08-50.43,0c-.45,0-.89-.5-1.34-.76q22.11-.09,44.2-.2C274.52,561.34,277.41,561.2,280.3,561.11Z" transform="translate(-9.79 -432.53)"/><path class="cls-9" d="M76.17,473.76c-5.57-2.1-11.26-3-17.17-1.69.41-.61.78-1.71,1.24-1.76,5.34-.51,10.63-.39,15.48,2.34C76,472.81,76,473.38,76.17,473.76Z" transform="translate(-9.79 -432.53)"/><path class="cls-9" d="M80.53,477.52l-4.42-3.78C79,473.31,80.16,475,80.53,477.52Z" transform="translate(-9.79 -432.53)"/><path class="cls-1" d="M388.8,477.67a1.1,1.1,0,0,0,.15-.57q5.54-13.44,11.08-26.87a82.41,82.41,0,0,0,4.63-8c1-2.26,1.43-4.32,3.81-1a2.94,2.94,0,0,0,2.41.21c1.27-2.78,3.71-1.9,5.76-1.92,6.49-.08,13,.08,19.48-.07,4.29-.1,8.5-.48,9.12,5.43,0,.18.72.29,1.1.44q5.1,16.68,10.22,33.37c.52,1.7,1.14,3.38,2,5.81.61-1.52,1.05-2.41,1.33-3.34,3.88-13.05,7.73-26.12,11.64-39.16a24.26,24.26,0,0,1,1.48-3.25,13.82,13.82,0,0,0,3.09.72c12.38,0,24.76,0,37.14-.05l2.88,5.92,2.15,5.84.48.72c5.47,14.24,10.88,28.51,16.43,42.73,4.71,12.05,9.57,24.05,14.36,36.07q3.65,9.55,7.28,19.12c.92,2.44,1.75,4.91,2.63,7.37-.09,1.29-.18,2.58-.3,4.2h-4.7c-13.49,0-27,0-40.48,0-3.54,0-7.12.53-9.2-3.32q-5.07-16.77-10.16-33.53c-.48-1.56-1.09-3.09-1.64-4.63v0l-.57-1.86.06-.07L491,512.39h-.82c-.49,1.93-1,3.86-1.48,5.79l-.73,2.46-3.36,10.81h0q-2.38,7.5-4.79,15l-.15.8-4.95,14.07-31.95.11q-7.29-23.25-14.57-46.49c-.28-.89-.65-1.75-1.26-3.38l-14,46.59c-1.31,1.07-2.62,3.06-3.95,3.08-16,.21-32.09.14-48.15.14-2.24,0-3-.79-2.09-3.08a33.43,33.43,0,0,0,1.14-5.42q7.17-18.71,14.36-37.4Q381.49,496.55,388.8,477.67Z" transform="translate(-9.79 -432.53)"/><path class="cls-1" d="M383.5,441.31q-22.83,58.31-45.66,116.6a16.56,16.56,0,0,1-1,1.8c-1.5.55-3,1.55-4.48,1.57q-21.54.16-43.07-.06c-.93,0-1.85-1.67-2.77-2.56,1.73-4.79,3.59-9.54,5.12-14.4a8.29,8.29,0,0,0,.09-5.09q-15.21-38.91-30.68-77.72a8.85,8.85,0,0,0-.87-1.35h0c-2.6-7-5.21-14-8-21.45l2.79-.16a14,14,0,0,0,3.42.9q19.53.11,39.05,0a14,14,0,0,0,3.44-.89c2.57-.95,3,.86,3.58,2.66Q310.71,460,317,478.82c.47,1.42,1,2.83,1.79,5.06,3.88-11.17,7.49-21.6,11.11-32,3.13-2.64,3.57-6.2,3.38-10h0a29.4,29.4,0,0,1,13.33-2.52c10.48.28,21,.12,31.45.06a28.8,28.8,0,0,0,4.36-.68Z" transform="translate(-9.79 -432.53)"/><path class="cls-7" d="M446.34,445.28c-.38-.15-1.08-.26-1.1-.44-.62-5.91-4.83-5.53-9.12-5.43-6.49.15-13,0-19.48.07-2.05,0-4.49-.86-5.76,1.92a2.94,2.94,0,0,1-2.41-.21c-2.38-3.3-2.79-1.24-3.81,1a82.41,82.41,0,0,1-4.63,8,1.11,1.11,0,0,1,0-.41c4-11.64,4-11.64,16.25-11.65h21.94C445,438.17,445,438.18,446.34,445.28Z" transform="translate(-9.79 -432.53)"/><path class="cls-7" d="M382.36,438.74a28.8,28.8,0,0,1-4.36.68c-10.48.06-21,.22-31.45-.06a29.4,29.4,0,0,0-13.33,2.52l.93-3.26Z" transform="translate(-9.79 -432.53)"/><path class="cls-5" d="M286.54,558.66c.92.89,1.84,2.55,2.77,2.56q21.53.25,43.07.06c1.49,0,3-1,4.48-1.57-.82.89-1.62,2.55-2.44,2.56-16.31.15-32.63.11-49.54.11Z" transform="translate(-9.79 -432.53)"/><path class="cls-8" d="M382.36,438.74l-48.21-.12c.46-.26.91-.76,1.37-.76,16.23,0,32.46,0,49.48,0-.63,1.48-1.07,2.48-1.5,3.48Z" transform="translate(-9.79 -432.53)"/><path class="cls-7" d="M301,438.52a14,14,0,0,1-3.44.89q-19.51.09-39.05,0a14,14,0,0,1-3.42-.9Z" transform="translate(-9.79 -432.53)"/><path class="cls-7" d="M513.21,439.38c-12.38,0-24.76.07-37.14.05a13.82,13.82,0,0,1-3.09-.72c7.25-.16,14.5-.35,21.76-.45,4.94-.07,9.89-.07,14.84.05A14.69,14.69,0,0,1,513.21,439.38Z" transform="translate(-9.79 -432.53)"/><path class="cls-7" d="M333.24,441.89c.19,3.76-.25,7.32-3.38,10Z" transform="translate(-9.79 -432.53)"/><path class="cls-1" d="M930.33,438.64c7,1.66,14.18,2.68,20.88,5.1C968,449.8,980.38,460.8,986,478.17c7.73,23.8,4.19,56-22.14,72.57A66.4,66.4,0,0,1,930,561.43l-6.3-.15c-1.09-.53-2.17-1.52-3.26-1.52q-26.68-.15-53.37,0c-1.08,0-2.15,1-3.23,1.55h-1.67c-.16-.71-.32-1.42-.49-2.13l-.64,0-.53,2.12a4.4,4.4,0,0,1-.81,0c0-39.06,0-78.11-.1-117.17,0-3.53.77-4.74,4.56-4.7,18.68.2,37.36.11,56,.06a26.44,26.44,0,0,0,4.34-.74l3.32-.22ZM908,523.36c11.92,2.4,23.08-1.5,28.13-9.69s4.38-21.26-1.38-28.59c-5.44-6.92-17.6-10.33-26.75-7.5Z" transform="translate(-9.79 -432.53)"/><path class="cls-10" d="M359.85,552.85a33.43,33.43,0,0,1-1.14,5.42c-.87,2.29-.15,3.08,2.09,3.08,16.06,0,32.11.07,48.15-.14,1.33,0,2.64-2,3.95-3.08-.18,3.1-1.5,4.41-4.94,4.37-16.15-.19-32.3-.08-48.46-.1-1.06,0-2.12-.15-3.78-.28Z" transform="translate(-9.79 -432.53)"/><path class="cls-5" d="M442.73,561.41l31.95-.11c-.62.36-1.25,1-1.88,1q-14,.1-28,0A6,6,0,0,1,442.73,561.41Z" transform="translate(-9.79 -432.53)"/><path class="cls-7" d="M924.52,438.68a26.44,26.44,0,0,1-4.34.74c-18.69.05-37.37.14-56-.06-3.79,0-4.57,1.17-4.56,4.7.13,39.06.09,78.11.1,117.17l-.93,0c-.07-1.37-.2-2.74-.2-4.12q0-57,0-114v-4.47Z" transform="translate(-9.79 -432.53)"/><path class="cls-5" d="M858.74,561.27l.93,0a4.4,4.4,0,0,0,.81,0l1.66.05h1.67l59.86,0,6.3.15c-3,.32-6,.89-9,.91q-29.37.12-58.75,0A13.19,13.19,0,0,1,858.74,561.27Z" transform="translate(-9.79 -432.53)"/><path class="cls-5" d="M504.74,558.06c2.08,3.85,5.66,3.34,9.2,3.32,13.49-.07,27,0,40.48,0h4.7c.12-1.62.21-2.91.3-4.2l2.31,5.23H523.35c-4.43,0-8.88-.21-13.3.07C506.62,562.67,504.76,561.63,504.74,558.06Z" transform="translate(-9.79 -432.53)"/><path class="cls-6" d="M790.71,481.75c0-13.07,0-26.15.12-39.22a33.32,33.32,0,0,1,.59-4.41l.84.36c0,.34,0,.69,0,1v50.79l-2.1.52c-.95-2-1.89-3.95-2.84-5.92l3.38,4.31Z" transform="translate(-9.79 -432.53)"/><path class="cls-1" d="M785.66,481.73c.56,1.06,1.12,2.12,1.67,3.18.95,2,1.89,3.94,2.84,5.92l2.1-.52v-50.8l46.53-.05V561.35c-14.64,0-28.61,0-42.57,0-3,0-6-.45-9-.69h0c-.56-.87-1.12-1.74-1.67-2.61l-4.83-6.67,0,0-23.37-37.17-.63-1.13-1.57-2.82a16.84,16.84,0,0,0-1.07,4c-.08,14.2-.19,28.41,0,42.61.06,3.77-1.2,4.62-4.73,4.57-14.24-.19-28.48-.12-42.73-.14l.06-.92.81-2.37c3.89.53,3.29-2.2,3.29-4.5v-114l47.62.75.67.7,1,1q6.06,9.17,12.13,18.33Z" transform="translate(-9.79 -432.53)"/><path class="cls-9" d="M707.51,558l-.81,2.37q0-58.49-.09-117c0-1.65-.09-3.3-.15-4.95l1.06,0c0,.32,0,.65,0,1Z" transform="translate(-9.79 -432.53)"/><path class="cls-7" d="M707.54,439.48c0-.32,0-.65,0-1a.53.53,0,0,1,.59-.17l49.44.07.87,1.81-47.62-.75Z" transform="translate(-9.79 -432.53)"/><path class="cls-7" d="M760.14,441.88l-1-1Z" transform="translate(-9.79 -432.53)"/><path class="cls-11" d="M492.94,519.88l-.57-1.85Z" transform="translate(-9.79 -432.53)"/><path class="cls-3" d="M923.67,561.28l-59.86,0c1.08-.54,2.15-1.55,3.23-1.55q26.69-.15,53.37,0C921.5,559.76,922.58,560.75,923.67,561.28Z" transform="translate(-9.79 -432.53)"/><path class="cls-3" d="M862.14,561.32l-1.66-.05.53-2.12.64,0C861.82,559.9,862,560.61,862.14,561.32Z" transform="translate(-9.79 -432.53)"/><path class="cls-10" d="M787.19,560.63c3,.24,6,.67,9,.69,14,.07,27.93,0,42.57,0V439.46l0-.92,1,.06V562.34H829.1c-12.46,0-24.92.06-37.38-.07C790.21,562.25,788.7,561.2,787.19,560.63Z" transform="translate(-9.79 -432.53)"/><path class="cls-10" d="M785.7,559.65l-.18-1.64c.55.87,1.11,1.74,1.67,2.61Z" transform="translate(-9.79 -432.53)"/><path class="cls-7" d="M838.77,438.54l0,.92-46.53.05c0-.34,0-.69,0-1Z" transform="translate(-9.79 -432.53)"/><path class="cls-12" d="M707.54,439.48h3.26v114c0,2.3.6,5-3.29,4.5Z" transform="translate(-9.79 -432.53)"/></svg>