<svg id="Layer_1" data-name="Layer 1" xmlns="http://www.w3.org/2000/svg" viewBox="0 0 990.04 815.88"><defs><style>.cls-1{fill:#fff;}</style></defs><path class="cls-1" d="M575.9,908.44c-1.94-.58-3.84-1.31-5.82-1.72a87.87,87.87,0,0,1-69.94-79.34c-2.94-38.44,20.55-75.88,57-88.7,53.69-18.9,105.84,14.32,116,64.56,9.58,47.57-21.93,94.36-69.57,103.66-1.81.36-3.56,1-5.34,1.54Zm59.44-93c-.09-7-3.47-17.77-10.24-27.42-19.14-27.32-56.84-27.39-76.05-.14-14.86,21.1-13.13,52,4,71.31,15.75,17.75,41.79,21.05,60.24,7.34C628.78,855,636,839.38,635.34,815.41Z" transform="translate(-5.52 -92.56)"/><path class="cls-1" d="M230.71,908.44a53.6,53.6,0,0,0-5.32-1.66c-40.92-8.27-70.85-44.62-70.57-85.74A88.36,88.36,0,0,1,227,734.58c53.27-9.8,112.11,34,101,101.38-5.87,35.69-34.62,64.51-70.62,71.21-1.51.28-3,.84-4.44,1.27Zm59.89-95.7c-.11-12.36-8.67-27.27-24.28-37.85-14.48-9.82-30.42-9.87-45.38-1.84-34.69,18.63-36.5,72.41-3.62,94.24a45.09,45.09,0,0,0,55.08-3.56C285.75,852,290.39,836.76,290.6,812.74Z" transform="translate(-5.52 -92.56)"/><path class="cls-1" d="M995.55,904.58c-12.4.07-24.8,0-37.2.29-3.5.07-5.2-1.31-6.36-4.49-3.8-10.43-7.94-20.74-11.7-31.18-1.21-3.35-2.85-4.81-6.6-4.78q-29.49.26-59,0c-3.91,0-5.73,1.43-7,5-3.76,10.44-7.76,20.81-11.9,31.1-.67,1.67-2.55,4-3.92,4.06-13.17.3-26.35.18-40.35.18.86-2.32,1.41-3.93,2.05-5.5Q845.3,821.47,877,743.7c1.45-3.59,3.37-5.3,7.5-5.22q19.08.38,38.18,0c4.1-.08,6,1.5,7.51,5.14Q962,821.09,994,898.46a13.62,13.62,0,0,0,1.51,2.25ZM880.42,834.47H925.3l-21.94-57.66-1.13.12C895,795.91,887.84,814.89,880.42,834.47Z" transform="translate(-5.52 -92.56)"/><path class="cls-1" d="M498.7,92.56c83.62.71,163,14,238.58,46.39,48.29,20.67,92.2,48.12,128.74,86.29,28.06,29.32,49.17,62.86,59,102.68,11.35,46,5.64,90.16-15.62,132.26-22.19,43.94-55.86,77.61-96,105.24C762.42,600.48,706,622.83,646.1,636.94a635.38,635.38,0,0,1-168.25,16.12c-79.85-2.77-156.72-18.88-229.39-52.9-43.29-20.27-82.33-46.65-115.34-81.45-28.62-30.16-48.81-65.06-58-105.85-10.44-46.36-2.55-90.12,19.43-131.75,21.65-41,53.64-72.51,91.2-98.83C241.22,143.4,303.23,120.14,369,106.15,412.35,96.94,456.24,92.89,498.7,92.56ZM534.33,624c16.2-2,31.12-3.32,45.9-5.58,60.49-9.24,117.51-28.35,169.38-61.3,39.12-24.86,72.57-55.62,95.7-96.4,21.62-38.12,30.86-78.81,24.6-122.6-5.75-40.23-23.28-74.95-49.13-105.82-.25-.3-.74-.38-1-.52-.54,6.17-.58,12.3-1.69,18.22-3.46,18.65-14,33.36-27.32,46.17-18.58,17.86-40.55,30.56-64,40.88-36.87,16.27-75.53,26.38-115.21,32.8-4,.64-5.83,1.78-5.73,6.32a537.65,537.65,0,0,1-4.67,83.82c-4.31,31.81-10.84,63.09-22.37,93.15-8.69,22.67-19.23,44.29-36.24,62.14C540.14,617.74,537.78,620.28,534.33,624ZM177.93,236.79l-1.27-.72c-6.1,9-12.61,17.8-18.22,27.13-24.55,40.81-34.26,84.71-26.33,132,6.64,39.55,25,73.5,50.89,103.55,31.8,36.89,71.34,63.39,115.28,83.58,45.12,20.73,92.66,32.92,141.89,38.72,8.05,1,16.15,1.52,25.48,2.39-1.51-1.64-2.14-2.27-2.71-3C455.85,612,448,604,441.86,594.83c-12.72-19-20.87-40.27-27.47-62-15.34-50.52-20.78-102.38-20.11-155,.07-5.47-1.58-7.08-6.68-7.83a482.57,482.57,0,0,1-81.09-19.27c-31.84-10.52-62.29-23.84-88.72-44.91C195.58,288.1,178.66,267.08,177.93,236.79ZM498.8,125.91a621.36,621.36,0,0,0-111.54,9.38c-30.66,5.48-60.6,13.46-88.85,26.93-15.09,7.19-29.19,15.87-39.92,29-13,15.88-12.91,33.44-.09,49.42a91.56,91.56,0,0,0,27,22.36c34.74,19.56,72.75,28.9,111.64,35.46,2.71.46,3.74-.46,4-3.18.34-3.51,1.09-7,1.76-10.46,6.23-32.67,14.72-64.63,30.05-94.4,9.07-17.6,19.7-34,36-45.94,20.53-15,42.65-14.91,62.93.39,10.81,8.16,19.42,18.37,26.49,29.82,22,35.52,32.71,75,39.87,115.62,1.78,10.11.67,8.12,9.3,6.77,1.27-.19,2.54-.42,3.81-.65,30.66-5.52,60.62-13.37,88.79-27.07,13.84-6.73,26.83-14.72,37.17-26.39,14.73-16.6,15.29-34.73,1.5-52.07-7.33-9.22-16.71-16-26.82-21.84-17.79-10.27-36.77-17.69-56.5-23.3C604.23,131.21,551.83,126,498.8,125.91Zm64.89,250.25c-6.93.5-12.85,1-18.77,1.33-34.28,1.89-68.55,2.13-102.77-.9-4.68-.41-5.9,1.1-5.51,5.51,1.12,12.81,1.58,25.7,3,38.47,3,26.61,8.52,52.7,19.55,77.3,5.69,12.69,12.3,24.87,23.88,33.38,11.27,8.28,22.69,8.44,33.8,0a65.38,65.38,0,0,0,10.85-10.89c7.9-9.72,12.93-21,17.28-32.7,10.1-27,14.84-55.19,17.18-83.82C562.94,394.9,563.18,385.93,563.69,376.16Zm-5.12-72.55C554,278.17,548.39,254,536.25,232.15A96.34,96.34,0,0,0,519.44,210c-11.76-11.39-26-11.52-38.08-.52a85.62,85.62,0,0,0-16.15,20.19c-12.42,21.57-18.45,45.41-22.9,69.72-.7,3.83.26,4.64,3.87,4.89a718.85,718.85,0,0,0,91.66.82C544.53,304.73,551.21,304.15,558.57,303.61Z" transform="translate(-5.52 -92.56)"/><path class="cls-1" d="M414.37,805.61c12.7-19.76,25.24-38.5,36.86-57.78,4.29-7.12,8.93-10.22,17.28-9.4,8.14.8,16.42.16,24.64.19,1.53,0,3.07.17,5.66.33-3,4.73-5.37,8.65-7.84,12.53-18.52,29.06-37.1,58.08-55.46,87.24a19,19,0,0,0-2.72,9.38c-.24,16.75-.07,33.5-.05,50.25,0,6.17-.42,6.51-6.61,6.47-8.22-.06-16.43,0-24.65,0-6,0-6.41-.33-6.4-6.15,0-15.3-.06-30.61.2-45.91A31.59,31.59,0,0,0,390,834.58Q360.78,789,331.82,743.31c-.75-1.18-1.35-2.46-2.37-4.32,2-.17,3.37-.36,4.73-.37,10.47,0,20.95.09,31.42-.15,4-.09,6.52,1.37,8.66,4.75,12,18.9,24.14,37.69,36.25,56.51C411.62,801.47,412.77,803.18,414.37,805.61Z" transform="translate(-5.52 -92.56)"/><path class="cls-1" d="M77.29,738.51c21.58,0,43.16.11,64.74-.08,4.61,0,6.33,1.39,6.11,6.1-.33,7.07-.22,14.16,0,21.24.11,4-.95,5.68-5.41,5.58-13.52-.31-27,0-40.57-.25-4.67-.09-6.12,1.54-6.1,6.13.18,40.25.18,80.5.23,120.75,0,6.9,0,6.88-7.07,6.82-8.05-.06-16.1,0-24.15,0-6.27,0-6.31,0-6.31-6.52V777.54c0-6.37,0-6.38-6.5-6.36-13.69,0-27.38,0-41.06.19-4.12.06-5.81-1.21-5.63-5.55.29-7.23.28-14.49,0-21.73-.17-4.27,1.43-5.66,5.58-5.63C33.17,738.58,55.23,738.52,77.29,738.51Z" transform="translate(-5.52 -92.56)"/><path class="cls-1" d="M750.28,738.6c21.74,0,43.49.15,65.23-.1,4.82-.06,6.08,1.56,5.86,6.08-.35,7.4-.34,14.82-.12,22.22.11,3.71-1.26,4.63-4.76,4.58-13.37-.2-26.74-.11-40.11-.14-7.22,0-7.22,0-7.22,7.44,0,40.26,0,80.52.17,120.77,0,4.24-1,5.54-5.37,5.38-8.84-.33-17.72-.25-26.57.06-4.47.15-5.85-1.4-5.83-5.83.16-40.58,0-81.16.26-121.73,0-5-1.36-6.32-6.24-6.2-13.68.34-27.38,0-41.07.26-4.33.07-5.6-1.48-5.44-5.64.28-7.24.31-14.5,0-21.73-.18-4.26,1.27-5.61,5.5-5.58,21.9.16,43.81.07,65.71.07Z" transform="translate(-5.52 -92.56)"/></svg>