<?xml version="1.0" encoding="UTF-8"?>
<svg xmlns="http://www.w3.org/2000/svg" xmlns:xlink="http://www.w3.org/1999/xlink" width="722.12pt" height="100.1pt" viewBox="0 0 722.12 100.1" version="1.1">
<g id="surface1">
<path style=" stroke:none;fill-rule:nonzero;fill:rgb(0%,64.299011%,27.49939%);fill-opacity:1;" d="M 12.753906 0.382813 C 12.753906 0.382813 5.957031 38.910156 0.667969 67.617188 C -4.621094 96.324219 22.953125 100.101563 31.640625 100.101563 C 47.128906 100.101563 71.679688 94.054688 76.210938 71.015625 C 80.746094 47.972656 88.300781 6.425781 88.300781 6.425781 L 717.585938 6.425781 L 722.113281 0.00390625 L 67.148438 0.00390625 C 67.148438 0.00390625 59.59375 43.820313 55.4375 60.816406 C 51.28125 77.816406 49.015625 81.96875 36.929688 81.96875 C 24.84375 81.96875 22.199219 77.4375 24.84375 58.550781 C 27.484375 39.664063 35.417969 0.00390625 35.417969 0.00390625 "/>
<path style=" stroke:none;fill-rule:nonzero;fill:rgb(0%,64.299011%,27.49939%);fill-opacity:1;" d="M 84.523438 97.457031 L 97.742188 20.398438 L 106.429688 20.398438 L 149.867188 97.457031 L 138.914063 97.457031 L 111.71875 50.050781 L 104.164063 97.457031 "/>
<path style=" stroke:none;fill-rule:nonzero;fill:rgb(0%,64.299011%,27.49939%);fill-opacity:1;" d="M 110.964844 20.402344 L 122.296875 20.402344 L 148.355469 69.128906 L 156.289063 20.402344 L 175.554688 20.402344 L 162.332031 97.457031 L 154.023438 97.457031 "/>
<path style=" stroke:none;fill-rule:nonzero;fill:rgb(0%,64.299011%,27.49939%);fill-opacity:1;" d="M 173.285156 97.457031 L 192.550781 97.457031 L 205.769531 20.398438 L 186.886719 20.398438 Z M 173.285156 97.457031 "/>
<path style=" stroke:none;fill-rule:nonzero;fill:rgb(0%,72.198486%,90.59906%);fill-opacity:1;" d="M 491.199219 97.457031 L 510.464844 97.457031 L 523.683594 20.398438 L 504.800781 20.398438 Z M 491.199219 97.457031 "/>
<path style=" stroke:none;fill-rule:nonzero;fill:rgb(0%,72.198486%,90.59906%);fill-opacity:1;" d="M 310.625 67.617188 L 323.242188 43.066406 L 327.84375 67.617188 Z M 333.441406 97.457031 L 353.839844 97.457031 L 337.59375 20.402344 L 316.820313 20.402344 L 283.960938 80.835938 L 260.164063 80.835938 C 245.808594 80.835938 241.277344 69.128906 241.277344 61.195313 C 241.277344 53.261719 251.855469 34.757813 268.097656 34.757813 C 284.339844 34.757813 288.871094 35.132813 288.871094 35.132813 L 298.3125 17.757813 L 269.230469 17.757813 C 248.453125 17.757813 220.878906 37.398438 220.878906 61.949219 C 220.878906 86.125 237.5 97.457031 254.496094 97.457031 L 295.289063 97.457031 L 303.25 81.96875 L 330.535156 81.96875 "/>
<path style=" stroke:none;fill-rule:nonzero;fill:rgb(0%,72.198486%,90.59906%);fill-opacity:1;" d="M 385.1875 53.640625 L 383.714844 53.640625 L 386.699219 35.511719 C 386.699219 35.511719 402.5625 33.242188 402.5625 43.0625 C 402.5625 52.886719 393.875 53.640625 385.1875 53.640625 M 422.960938 38.152344 C 422.960938 30.222656 418.050781 20.402344 404.453125 20.402344 L 371.589844 20.402344 L 357.992188 97.457031 L 376.5 97.457031 L 381.925781 64.5 L 399.542969 97.457031 L 420.695313 97.457031 L 401.808594 64.59375 C 418.050781 61.195313 422.960938 46.085938 422.960938 38.152344 "/>
<path style=" stroke:none;fill-rule:nonzero;fill:rgb(0%,72.198486%,90.59906%);fill-opacity:1;" d="M 452.035156 53.640625 L 450.558594 53.640625 L 453.546875 35.511719 C 453.546875 35.511719 469.410156 33.242188 469.410156 43.0625 C 469.410156 52.886719 460.722656 53.640625 452.035156 53.640625 M 489.804688 38.152344 C 489.804688 30.222656 484.894531 20.402344 471.296875 20.402344 L 438.433594 20.402344 L 424.839844 97.457031 L 443.347656 97.457031 L 448.773438 64.5 L 466.386719 97.457031 L 487.539063 97.457031 L 468.652344 64.59375 C 484.894531 61.195313 489.804688 46.085938 489.804688 38.152344 "/>
<path style=" stroke:none;fill-rule:nonzero;fill:rgb(0%,72.198486%,90.59906%);fill-opacity:1;" d="M 576.949219 35.511719 L 579.722656 20.402344 L 537.285156 20.402344 L 523.6875 97.457031 L 566.242188 97.457031 L 569.015625 80.835938 L 545.804688 80.835938 L 548.265625 66.484375 L 570.402344 66.484375 L 573.171875 49.863281 L 551.117188 49.863281 L 553.582031 35.511719 "/>
<path style=" stroke:none;fill-rule:nonzero;fill:rgb(0%,72.198486%,90.59906%);fill-opacity:1;" d="M 606.761719 53.640625 L 605.285156 53.640625 L 608.269531 35.511719 C 608.269531 35.511719 624.136719 33.242188 624.136719 43.0625 C 624.136719 52.886719 615.449219 53.640625 606.761719 53.640625 M 674.019531 41.804688 C 674.019531 33.242188 690.390625 35.257813 698.699219 35.257813 L 710.53125 17.757813 L 684.847656 17.757813 C 676.792969 17.757813 654.128906 24.683594 654.128906 46.84375 C 654.128906 70.511719 682.328125 60.941406 682.328125 73.53125 C 682.328125 80.585938 674.023438 81.085938 667.726563 81.085938 L 632.859375 81.085938 L 623.378906 64.59375 C 639.621094 61.195313 644.53125 46.085938 644.53125 38.152344 C 644.53125 30.222656 639.621094 20.402344 626.023438 20.402344 L 593.160156 20.402344 L 579.5625 97.457031 L 598.070313 97.457031 L 603.5 64.5 L 621.113281 97.457031 L 670.492188 97.457031 C 680.820313 97.457031 702.726563 89.648438 702.726563 69 C 702.726563 48.351563 674.019531 53.136719 674.019531 41.804688 "/>
</g>
</svg>
