<svg id="Eagle" xmlns="http://www.w3.org/2000/svg" viewBox="0 0 999.64 584.56">
    <defs>
        <style>
            .cls-1 { fill: #ce3a46; }
        </style>
    </defs>
    <path 
        class="cls-1"
        d="M711.79,193.17c21-1.59,42-2.63,62.88-4.92s41.69-5.43,62.4-8.95c20.55-3.5,40.94-8,63.86-12.47-2.73,4.56-3.95,7.07-5.6,9.26-11.46,15.28-26.32,26.38-43.28,34.85C829.31,222.31,805,228,780,231.51c-30.82,4.34-61.76,3.7-92.72,2.83-17-4.22-22-4.32-34.15.22L677,237.82c41.16,6.66,82.48,12.24,127.17,16.94-5,4.4-7,6.51-9.27,8A131,131,0,0,1,732.73,284c-26.45,2.17-52.29-1.32-77.66-8.85L635,269.23c-4.88-3.92-10.09-6.57-18.21-5.09,4.79,4.94,8.7,8.14,14,9.3,12.47,7.4,25,14.69,37.38,22.22,12.23,7.45,26.27,11.8,37.78,21.24-39,25.08-74.38,16-98.24-1.81-4.18-3.13-8.07-6.63-12.1-10-2.74-4.82-5.78-9.29-13.33-11.68,2.27,7.17,4.53,12,9.27,15.51q11.86,20.43,23.69,40.89c.23.41,0,1.09,0,1.65-17,7.18-25.56,5.17-62.11-14.88-18.33,13.41-33.51,31.27-52.19,46-7.21-3.61-12-9.61-17.55-14.52-6.13-5.42-12-11.1-18.05-16.63-5.54-5.07-11.13-10.1-17.06-15.49-19.68,11.39-38.32,24.15-63.41,17,5.26-15.4,15.71-26.79,22-40.34,6.56-7.61,6.41-7.7,8-16.92-5.2,3.86-9.7,7.26-12.46,12.51-11,8.69-22.44,16.6-36.05,20.67-25,7.49-48.11,2-71.71-11.13,3.19-2.55,5.34-4.78,7.92-6.24,22.74-12.87,45.56-25.6,68.35-38.37l13.64-7.23,8.56-6c-5.83-3-8.78-.43-11.74,2.18l-17.42,7.71c-16.38,4.14-32.61,9.14-49.18,12.23-23.15,4.33-46.54,4.19-69.49-1.87-16.35-4.32-31.86-10.7-46.61-23.19,4.56-1.64,7.37-3.26,10.35-3.65,29.51-3.9,59-7.54,88.55-11.38,8.09-1,16.13-2.54,24.19-3.83l27.41-3.75c3.82-.07,7.6-.19,10.59-6.85L346.57,231c-10.7.57-21.6-.82-31.91,3.39-31.49.78-63,1.59-94.32-2.91-22.62-3.25-44.71-8.26-65.62-17.69-18.88-8.5-35.5-20-48.41-36.5a40.86,40.86,0,0,1-3-4.3,21.25,21.25,0,0,1-1.27-3.27c2.47-4.21,6.17-1.7,9.09-1.16,26.92,5,53.68,11,80.71,15.22,19.53,3.08,39.39,4,59.1,5.9,12.7,4.28,26,2.71,39,3.74,17.52,4,35.17,3.63,53,1.34a100.55,100.55,0,0,0-18.05-4.5,95.37,95.37,0,0,0-10.3-.56L283.28,186c-21.68-4.73-43.44-9.12-65-14.25C183,163.34,148.53,152.17,115.7,136.5c-24.39-11.64-47.24-25.65-67.15-44.11C23.86,69.48,7.13,42,.75,8.61.36,6.53.52,4.35.36.7,3.42,2.91,5.48,4,7,5.58,32.31,31.48,62.67,50,95,65.38,137.37,85.57,181.8,100,227.08,111.81c59.39,15.55,119.62,26.94,180.4,35.62a171.3,171.3,0,0,1,28.92,6.86c15.57,5.12,18.85,12.27,14.2,28.27-1.44,4.95-3.26,9.79-5.25,15.72l30.1,14c.76-3.23,1.33-5.7,2.14-9.18,3.72.89,7.55,2.76,11.13,2.39,3.86-.41,7.5-2.94,11.61-4.7,7.3,2.54,14.44,8.83,22.65.59l2,10.85,30-13.47c-.88-3.67-1.56-6.92-2.43-10.11-1.21-4.5-3-8.89-3.77-13.46-1.52-8.94,1.29-14.43,9.7-18.45,11.71-5.59,24.4-7.79,37.14-9.64,69.45-10,138.23-23.34,205.68-42.88,34.82-10.08,69-22.07,101.83-37.57C937.12,50.58,969,31.39,995.4,4c.67-.69,2-.77,3.85-1.45,1.84,5.91-.1,11.36-1.55,16.74a147.22,147.22,0,0,1-28.88,55.56c-14.25,17.36-31.43,31.31-50.27,43.3-22.79,14.51-47.23,25.64-72.6,34.7-51.38,18.33-104.43,29.65-158.42,36.87-2.9-.06-5.86-.54-8.68-.08-6.76,1.1-13.45,2.63-22.25,4.4A135.09,135.09,0,0,0,711.79,193.17Zm-212,18.53c-5.62,3-9.74,6.22-10.42,12-.92,7.78,3.92,18.73,12.05,27.45,1.36-2,2.91-3.62,3.8-5.58a102.54,102.54,0,0,0,5.09-12.9C513.48,222.09,512.18,219.6,499.81,211.7Z" 
        transform="translate(-0.36 -0.7)"/>
        <path 
            class="cls-1" 
            d="M494.68,405.14l11.29.77c.77,2.42,1.63,4,1.73,5.63q4,67.27,7.89,134.57c1.11,19.75.16,21.81-15.77,39.15-6.25-6.21-10.2-13.94-14.21-21.43-1.51-2.82-1.38-6.81-1.17-10.21q4.24-69.9,8.78-139.78C493.37,411.57,494,409.33,494.68,405.14Z" 
            transform="translate(-0.36 -0.7)"/>
        <path 
            class="cls-1" 
            d="M567.48,519.12c-9.49,10.14-18.57,19.9-27.75,29.57-1.48,1.56-3.44,2.69-6.64,5.13-1.06-7.19-2.25-12.69-2.63-18.25Q526,471,521.79,406.51a54.56,54.56,0,0,1,.1-12.19c.42-2.54,2.55-4.79,4.28-7.82,1.63,2.17,3.12,3.35,3.56,4.85C542.32,433.71,554.8,476.11,567.48,519.12Z" transform="translate(-0.36 -0.7)"/><path class="cls-1" d="M468.31,554.43c-13.91-11.18-23.12-23.07-33.21-33.35,1-13,23.65-95.1,35.36-128.53.71-2,2.36-3.71,3.61-5.62,6.38,4.41,5.87,10.32,5.5,16.08q-2,30.57-4.11,61.13-2.85,40.16-5.88,80.31C469.41,546.74,469,549,468.31,554.43Z" 
            transform="translate(-0.36 -0.7)"/>
        <path 
            class="cls-1" 
            d="M414.41,496.26c-8.43-11-17.25-20.17-23.21-31.18,9.12-19,53.44-92,61.62-101.52,7.15,11,7.78,11.79,4.87,19.79C444.37,420,430.77,456.49,417.25,493,417.06,493.54,416.51,493.91,414.41,496.26Z" 
            transform="translate(-0.36 -0.7)"/>
        <path 
            class="cls-1" 
            d="M585.41,496.35c-2.13-4.25-3.33-6.16-4.08-8.22-12.4-33.85-24.64-67.76-37.17-101.56-3.34-9-2.73-16.8,4.47-25.29,20.9,34.85,41.19,68.7,61.66,102.85C603.73,475.65,595.65,485.31,585.41,496.35Z" 
            transform="translate(-0.36 -0.7)"/>
</svg>