<svg xmlns="http://www.w3.org/2000/svg" viewBox="0 0 354.08 164.51"><defs><style>.cls-1{fill:#be0000;}.cls-2{fill:#fff;}</style></defs><g id="Layer_2" data-name="Layer 2"><path class="cls-1" d="M189.88,40.88a24.72,24.72,0,0,1-6.52,8.28,31.68,31.68,0,0,1-11.8,6.45s-.07.06-.07.15c7.82-.26,14.33-3.58,20.12-8.53a1,1,0,0,1,0,.19,17.63,17.63,0,0,1-5.88,8,34.66,34.66,0,0,1-13.2,6.47c2.79.14,12.82-1.89,17.11-5.15-2.4,4.11-10.24,10.35-19.27,11l3.6.22c2.23.15,4.45.29,6.68.47.44,0,1.08.08,1.12.6,0,.3-.47.71-.82.94a19,19,0,0,1-6.09,2.3c-.73.18-1.47.32-2.22.55.42,0,.85,0,1.27.1a24.15,24.15,0,0,1,2.43.41c.62.14,1.42.27,1.51,1s-.66,1.11-1.24,1.36c-1.22.53-2.49,1-3.75,1.41-.76.25-1.55.4-2.35.68l2.1.34a6.83,6.83,0,0,1,.9.18c.46.14.53.45.12.67a11.07,11.07,0,0,1-2.47,1.09,18.22,18.22,0,0,1-2.88.33c.74.28,1.43.53,2.1.82a5.7,5.7,0,0,1,.83.52,4.44,4.44,0,0,1-.84.54,9.77,9.77,0,0,1-5.28.27l-.39-.07-.06.14c.54.25,1.07.51,1.61.75.39.16.81.28,1.2.45a.65.65,0,0,1,.35.38c0,.09-.18.27-.31.35a5.36,5.36,0,0,1-3.44.64c-.8-.07-1.59-.24-2.37-.37.51.34,1.06.66,1.56,1.06a3.33,3.33,0,0,1,.59.78c-.28.14-.55.39-.83.41-1.23.11-2.47.15-3.86.23.37.16.63.25.87.38a18.38,18.38,0,0,1,1.61.91.7.7,0,0,1,.29.54.66.66,0,0,1-.48.37c-1,.08-2.09.13-3.13.13-.59,0-1.19-.1-1.8-.15,0,.05,0,.08,0,.1l.45.69c-.25.15-.5.41-.77.44-.93.1-1.88.12-2.9.17l.94.64a1.23,1.23,0,0,1,0,.19,3.21,3.21,0,0,1-.84.2c-1.57-.08-3.15-.19-4.72-.29-.27,0-.54-.07-.83-.11.93,1.78,5.41,4.18,7.81,4.18-.53-.3-1.05-.56-1.53-.87a10.89,10.89,0,0,1-1.32-1c9.54,2.78,19.11,3.59,28.82.76a5,5,0,0,1-1.35,2.16,11.19,11.19,0,0,1-4.64,2.68,17.36,17.36,0,0,1-10.55.3s0,0-.1,0a26.86,26.86,0,0,0,12.94,1.46c-.38.4-.66.71-1,1a10.57,10.57,0,0,1-7.58,3.2,13.83,13.83,0,0,1-6.41-1.72c-1-.53-2-1.14-2.94-1.71,1.06,1.71,5.59,4,9.06,4.22-.73.87-4.48,1.51-6.55,1.13-2.29-.43-4.1-1.82-6-3a13.79,13.79,0,0,0,3.44,3.2c-3.58.64-6.08-1.33-8.56-3.46.2.25.39.51.61.74s.48.5.72.74a7.15,7.15,0,0,1,.71.74,14.2,14.2,0,0,1-8-3.89,5,5,0,0,0,1.55,2.14c.67.56,1.43,1,2.18,1.57a7.8,7.8,0,0,1-5.44-.25,4,4,0,0,1,.66,3,4.75,4.75,0,0,0-4-1.45l2,1.56a4.19,4.19,0,0,1-3.34.4,3.63,3.63,0,0,1,.26,3,2.56,2.56,0,0,0-2.18-1.76c-.61-.16-1.23-.3-1.84-.44-.07.82.76,1.41,2.23,1.57-.37,1-2.42,1.24-4.39.53a2.87,2.87,0,0,1,.23,2.45,1.6,1.6,0,0,0-1.93-1.15,2.1,2.1,0,0,1-2.11-.93l-7,3.85a1.46,1.46,0,0,0,1.35.8,11.65,11.65,0,0,0,1.44-.12,2,2,0,0,1,2.13.79,2.26,2.26,0,0,1,.14,2.48A3.55,3.55,0,0,1,125,122l-1,.06c.41-.28.83-.54,1.22-.85a2.38,2.38,0,0,0,.39-.61,1.56,1.56,0,0,1-1-2,2.9,2.9,0,0,1-1.69.33l.44.31L102,131.67l12.68,8.46-22.28,13,9,6L62.05,177.48h0l27.23-6.86H205.93V40.88Zm-58,119.62h-4.27v-12h-5.12v12h-4.28V132.17h4.28v12h5.12v-12h4.27Zm6.6,0h-4.27v-4.27h4.27Zm14.46-24.07H145v7.77h5.76v4.27H145v7.75h7.89v4.27H140.73V132.17h12.16Zm6.57,24.07h-4.27v-4.27h4.27Zm14.25-2a5.5,5.5,0,0,1-2.94,2,7.78,7.78,0,0,1-2.38.33,6.72,6.72,0,0,1-4.16-1.25,7.06,7.06,0,0,1-2.17-2.77,10.85,10.85,0,0,1-.93-4l4.05-.28a6.17,6.17,0,0,0,1.32,3.57,2.17,2.17,0,0,0,1.75.8,2.68,2.68,0,0,0,2.24-1.37,3.44,3.44,0,0,0,.44-1.88,5.27,5.27,0,0,0-1.6-3.53l-3.81-3.58a15.92,15.92,0,0,1-3-3.68,8.58,8.58,0,0,1-.94-4,6.93,6.93,0,0,1,2.59-5.86,6.51,6.51,0,0,1,4-1.19,7.23,7.23,0,0,1,3.91,1,5.82,5.82,0,0,1,2,2.22,8.17,8.17,0,0,1,.95,3.27l-4.1.74a4.73,4.73,0,0,0-1-2.7,2.08,2.08,0,0,0-1.7-.72,2,2,0,0,0-1.78,1,4.07,4.07,0,0,0-.5,2.09,6.27,6.27,0,0,0,1.68,4,15.45,15.45,0,0,0,1.89,1.8c1,.83,1.65,1.41,2,1.74a14.89,14.89,0,0,1,2.43,3.12,12.54,12.54,0,0,1,.66,1.33,7.88,7.88,0,0,1-.9,7.79Zm8.1,2h-4.27v-4.27h4.27Zm14.25-2a5.47,5.47,0,0,1-2.94,2,7.71,7.71,0,0,1-2.37.33,6.73,6.73,0,0,1-4.17-1.25,7.06,7.06,0,0,1-2.17-2.77,10.85,10.85,0,0,1-.93-4l4.05-.28a6.17,6.17,0,0,0,1.32,3.57,2.18,2.18,0,0,0,1.76.8,2.68,2.68,0,0,0,2.23-1.37,3.44,3.44,0,0,0,.44-1.88,5.27,5.27,0,0,0-1.6-3.53l-3.81-3.58a15.58,15.58,0,0,1-3-3.68,8.47,8.47,0,0,1-.95-4,6.93,6.93,0,0,1,2.59-5.86,6.51,6.51,0,0,1,4-1.19,7.23,7.23,0,0,1,3.91,1,5.92,5.92,0,0,1,2,2.22,8.33,8.33,0,0,1,.94,3.27l-4.1.74a4.73,4.73,0,0,0-1-2.7,2.06,2.06,0,0,0-1.69-.72,2,2,0,0,0-1.79,1,4.07,4.07,0,0,0-.5,2.09,6.27,6.27,0,0,0,1.68,4,15.67,15.67,0,0,0,1.9,1.8c1,.83,1.65,1.41,2,1.74a15,15,0,0,1,2.44,3.12,14.54,14.54,0,0,1,.65,1.33,8.06,8.06,0,0,1,.63,2.72A7.94,7.94,0,0,1,196.06,158.53Zm7.47,2h-4.27v-4.27h4.27Z" transform="translate(-24.56 -12.97)"/><path class="cls-1" d="M121.77,53.17c-.27,1.19-.74,2.34-1.1,3.46,2.34-2.49,2.92-5.68,3.3-9a8.8,8.8,0,0,1,1,1.94,15.41,15.41,0,0,1,.64,6.07,17,17,0,0,1-1.69,7,1.21,1.21,0,0,0,0,.31c.34-.34.59-.56.82-.82s.65-.84,1-1.24.54-.26.66.13a2.89,2.89,0,0,1,.17,1.05,12.19,12.19,0,0,1-.28,1.54l.13-.07.78-.75c.61-.57.9-.5,1.14.29a4.26,4.26,0,0,1-.2,3l-.55,1.23a1.34,1.34,0,0,0,.52-.36c.33-.38.62-.78.95-1.16s.57-.36.81.11a2.61,2.61,0,0,1,.23,2c-.07.25-.13.49-.2.73a6.65,6.65,0,0,0,.49-.73c.25-.39.45-.38.65,0a2,2,0,0,1-.21,2.25l.55-.25c.71-.29,1.15,0,1,.76a3.38,3.38,0,0,1-.46,1.35c-.51.72-1.11,1.37-1.68,2l.08,0c.44-.16.84-.39,1.25-.58,3.87-3,7.48-8.34,9.21-11.15.6-1.26,1.13-2.56,1.66-3.87,1.23-3,2.38-6.12,3.79-9.07a19.81,19.81,0,0,1,12.68-10.88c2-.6,4.14-1,6.16-1.65a37.42,37.42,0,0,0,16.09-9.67,27.07,27.07,0,0,0,4.88-7,18.88,18.88,0,0,0-.58-7.26c-.07.1-.12.14-.13.19a25.6,25.6,0,0,1-7.07,14.05,37.42,37.42,0,0,1-16.09,9.67c-2,.64-4.13,1-6.17,1.65a21.05,21.05,0,0,0-5.2,2.35H121.73c.14.72.27,1.45.36,2.19A29.28,29.28,0,0,1,121.77,53.17Z" transform="translate(-24.56 -12.97)"/><path class="cls-1" d="M118.84,50.18a24.26,24.26,0,0,0,2.24-9.3h-.44a19.83,19.83,0,0,0-1.38-4.35,8.75,8.75,0,0,0-1.77-2.61,26.22,26.22,0,0,1,.69,6.21A24.42,24.42,0,0,1,118.84,50.18Z" transform="translate(-24.56 -12.97)"/><path class="cls-1" d="M175.52,48.45l-.36.18a.6.6,0,0,0-.34.28c1.05-.32,2.12-.59,3.15-.95a28.89,28.89,0,0,0,11.29-7.08h-.47c.25-.53.52-1,.73-1.59.47-1.24.75-2.56,1.11-3.84,0-.1,0-.21,0-.31-.55.89-1.05,1.82-1.66,2.66a27.9,27.9,0,0,1-2.61,3.08h-.64A39.87,39.87,0,0,1,175.52,48.45Z" transform="translate(-24.56 -12.97)"/><path class="cls-1" d="M146.13,73c10-4.72,7.94-8.92,10.31-17,1.76-6,5.11-11.53,10.16-14.58l-.52.16c-1.34.38-2.7.68-4.06,1-.9.2-1.79.39-2.69.63a14,14,0,0,0-9.27,7.52c-1.13,2.18-2.13,4.5-3.19,7l-.94,2.16c-.65,1.49-1.32,3-2.06,4.43l-.18.36-.22.33c-2.21,3.36-6.64,9.47-11.65,13.2a39,39,0,0,0,4.38-1.41C139.45,75.41,143,74.49,146.13,73Z" transform="translate(-24.56 -12.97)"/><path class="cls-1" d="M176,40.44c-1,.7-2,1.38-3.1,2.15l.34-.09a38,38,0,0,0,14.68-10c.44-.48.86-1,1.27-1.49a19.47,19.47,0,0,0,.61-2.42c.16-.93.21-1.87.3-2.81,0-.51,0-1-.08-1.54a1,1,0,0,0-.17.25,20.33,20.33,0,0,1-4.83,8c-.27.3-.57.56-.84.85A52.3,52.3,0,0,1,176,40.44Z" transform="translate(-24.56 -12.97)"/><path class="cls-2" d="M105,111.7a.59.59,0,0,0-.88.09c-.3.3-.55.64-.86,1a2.45,2.45,0,0,1,.37-2,2.64,2.64,0,0,1,3.61-.73c.29.17.58.36.86.54l.53-.48a1.36,1.36,0,0,1-1.16-.89c-.26-.74-.32-.77-1.1-.68a3.53,3.53,0,0,1-.36,0,2.33,2.33,0,0,1,3.1-.65,11.39,11.39,0,0,1,2.27,1.66,1.63,1.63,0,0,0,1.87.45c1.61-.71,3.24-1.42,4.79-2.25a5.33,5.33,0,0,0,2.6-3.56A42.9,42.9,0,0,1,122,100.1a19.37,19.37,0,0,1,1.11-2.17l1.09,1.54a4,4,0,0,1-.36-2.31c1,1.82,1.23,2.06,1.9,2.33a5.55,5.55,0,0,1-1.35-2.73A7.13,7.13,0,0,0,127,98.7a5.45,5.45,0,0,1-1.83-2.92l2.42,2a.76.76,0,0,1,.08-.11,12.08,12.08,0,0,1-1.23-1.35q-1.36-1.9-2.64-3.87a11.87,11.87,0,0,0-3.53-3.56,13.59,13.59,0,0,0-8.45-2.14,9.26,9.26,0,0,0-3,.74c-1.12.45-1.22,1-.58,2,0,0,0,.07,0,.1a3.69,3.69,0,0,1-3.77-2.45,5.29,5.29,0,0,1,3.36-6.37,1.25,1.25,0,0,0,.8-.69,7.54,7.54,0,0,1,4.46-3.75,15.74,15.74,0,0,1,4.72-.7c1.53,0,3.06,0,4.59,0,.44,0,.6-.17.71-.55a5.67,5.67,0,0,0-.24-3.83,9.75,9.75,0,0,0-4.2-4.61c-1.64-1-3.3-2-4.91-3a18.41,18.41,0,0,1-2-1.69l.1-.12a2,2,0,0,1,.19.12,25.9,25.9,0,0,0,6.1,3.41A13.88,13.88,0,0,1,123,68.48c.15.15.28.3.42.46s.28.29.41.44a16.92,16.92,0,0,0-7.57-6.15,10.59,10.59,0,0,1-6.45-5.78,8.8,8.8,0,0,1,.2-7c.37-.88.76-1.77,1.07-2.67a6.26,6.26,0,0,0-.21-5.15s0-.09,0-.19c1.66,1.08,2.16,2.79,2.64,4.53a13.08,13.08,0,0,0,1.82-6.07h-1.69a20.71,20.71,0,0,0-1.22-3.55,28,28,0,0,1,0,3.55h-7.37l0-.08h-2.87a.2.2,0,0,1,0,.08h-56V65.1H24.56V79.84H46.22v50.31H24.56v14.74H46.22v25.74H69.79l15.12-13.39-8-5.35,15.91-14.51-.11,0,1.5-1.32-8-5.36,20.27-18.49A1.5,1.5,0,0,1,105,111.7Zm-32,29.78H52.31V133.8H73.06Zm0-66.2H66.52v6.53H58.84V75.28H52.31V67.6h6.53V61.06h7.68V67.6h6.54Z" transform="translate(-24.56 -12.97)"/><path class="cls-1" d="M122.05,114.86a49.49,49.49,0,0,0,7-4.45.88.88,0,0,0,.31-.45,17.41,17.41,0,0,1,3-6.63,3.81,3.81,0,0,0-1.72,1.59c.35-2.34,2.46-6,4.94-8.54a6.5,6.5,0,0,0-2.54,2.1,20,20,0,0,0-3.24,6.69c-.36,1.24-.6,2.52-.91,3.82a9.16,9.16,0,0,1-3.19-1.27c.49,2.2.36,3.51-.42,4.29,0-.18,0-.35-.08-.51a2.07,2.07,0,0,0-2.53-1.89,10.11,10.11,0,0,0-3.55,1.17c-.61.28-1.2.61-1.8.92a1.17,1.17,0,0,0,0,.2,11.41,11.41,0,0,0,1.17-.19,9.15,9.15,0,0,0,1.06-.4,1.06,1.06,0,0,1,1.31.29,1.51,1.51,0,0,1,.25,1.68,1.35,1.35,0,0,1-1.17.86c.43-.7.41-1-.1-1.42a2.36,2.36,0,0,1-2.05.39,1.06,1.06,0,0,0-.87.13l-.11.05,2,1.48.44.17A3,3,0,0,0,122.05,114.86Z" transform="translate(-24.56 -12.97)"/><path class="cls-2" d="M220.38,56.85V68.61h-4.19V40.84h4.19v11.8h5V40.84h4.18V68.61h-4.18V56.85Z" transform="translate(-24.56 -12.97)"/><path class="cls-2" d="M232.12,68.61V40.84h11.93V45h-7.74v7.61H242v4.18h-5.65v7.6h7.74v4.19Z" transform="translate(-24.56 -12.97)"/><path class="cls-2" d="M259.52,61.71a7.81,7.81,0,0,1-1.51,5,5.36,5.36,0,0,1-2.88,2,7.81,7.81,0,0,1-2.33.32,6.61,6.61,0,0,1-4.08-1.22A7,7,0,0,1,246.59,65a10.67,10.67,0,0,1-.92-3.95l4-.27a6,6,0,0,0,1.29,3.5,2.12,2.12,0,0,0,1.72.78,2.59,2.59,0,0,0,2.19-1.34,3.33,3.33,0,0,0,.43-1.85,5.1,5.1,0,0,0-1.57-3.45L250,54.92A15.4,15.4,0,0,1,247,51.31a8.43,8.43,0,0,1-.92-3.9,6.75,6.75,0,0,1,2.54-5.73,6.26,6.26,0,0,1,3.9-1.18,7,7,0,0,1,3.83,1,5.68,5.68,0,0,1,2,2.17,8.2,8.2,0,0,1,.93,3.2l-4,.73a4.69,4.69,0,0,0-1-2.65,2,2,0,0,0-1.66-.7,1.93,1.93,0,0,0-1.75,1,4,4,0,0,0-.49,2,6.14,6.14,0,0,0,1.65,3.89A15.75,15.75,0,0,0,253.93,53c1,.82,1.62,1.38,1.93,1.71a14.7,14.7,0,0,1,2.39,3.06,10.43,10.43,0,0,1,.64,1.31A7.89,7.89,0,0,1,259.52,61.71Z" transform="translate(-24.56 -12.97)"/><path class="cls-2" d="M275,61.71a7.81,7.81,0,0,1-1.51,5,5.36,5.36,0,0,1-2.88,2,7.81,7.81,0,0,1-2.33.32,6.61,6.61,0,0,1-4.08-1.22A7,7,0,0,1,262.06,65a10.87,10.87,0,0,1-.92-3.95l4-.27a6,6,0,0,0,1.29,3.5,2.12,2.12,0,0,0,1.72.78,2.62,2.62,0,0,0,2.2-1.34,3.42,3.42,0,0,0,.42-1.85,5.1,5.1,0,0,0-1.57-3.45l-3.73-3.52a15.4,15.4,0,0,1-2.94-3.61,8.43,8.43,0,0,1-.92-3.9,6.75,6.75,0,0,1,2.54-5.73A6.26,6.26,0,0,1,268,40.5a7.09,7.09,0,0,1,3.84,1,5.73,5.73,0,0,1,2,2.17,8.2,8.2,0,0,1,.93,3.2l-4,.73a4.69,4.69,0,0,0-1-2.65,2,2,0,0,0-1.66-.7,1.93,1.93,0,0,0-1.75,1,4,4,0,0,0-.48,2,6.12,6.12,0,0,0,1.64,3.89A15.75,15.75,0,0,0,269.4,53c1,.82,1.62,1.38,1.93,1.71a14.37,14.37,0,0,1,2.39,3.06,10.43,10.43,0,0,1,.64,1.31A7.89,7.89,0,0,1,275,61.71Z" transform="translate(-24.56 -12.97)"/><path class="cls-2" d="M216.19,102.37V74.6h11.93v4.19h-7.74V86.4H226v4.19h-5.65v7.6h7.74v4.18Z" transform="translate(-24.56 -12.97)"/><path class="cls-2" d="M234.45,74.6,240,93.25V74.6h4.19v27.77H239.7l-5.77-17.78v17.78h-4.18V74.6Z" transform="translate(-24.56 -12.97)"/><path class="cls-2" d="M246.68,102.37V74.6H258.6v4.19h-7.73V86.4h5.64v4.19h-5.64v7.6h7.73v4.18Z" transform="translate(-24.56 -12.97)"/><path class="cls-2" d="M266.83,74.6c2.33,0,4,.65,5.13,1.93a7,7,0,0,1,1.44,4.69v4a6.45,6.45,0,0,1-2.23,5l3.1,12.13h-4.52L267.2,91.88l-.38,0h-2.4v10.47h-4.19V74.6Zm2.49,6.7a2.12,2.12,0,0,0-2.38-2.42h-2.52v8.88h2.52a2.27,2.27,0,0,0,1.69-.71,2.35,2.35,0,0,0,.69-1.7Z" transform="translate(-24.56 -12.97)"/><path class="cls-2" d="M282.54,102.72a6.64,6.64,0,0,1-6.64-6.62V80.89a6.63,6.63,0,1,1,13.26,0v3.17h-4.34V80.81a2.32,2.32,0,0,0-.7-1.71,2.37,2.37,0,0,0-1.72-.71,2.3,2.3,0,0,0-1.69.71,2.36,2.36,0,0,0-.7,1.71V96.05a2.36,2.36,0,0,0,.7,1.71,2.3,2.3,0,0,0,1.69.7,2.36,2.36,0,0,0,1.72-.7,2.32,2.32,0,0,0,.7-1.71V90.59h-2.33V86.4h6.67v9.7a6.61,6.61,0,0,1-6.62,6.62Z" transform="translate(-24.56 -12.97)"/><path class="cls-2" d="M295.27,90.74l-5.6-16.14h4.59l3.12,10,3.08-10h4.63l-5.63,16.14v11.63h-4.19Z" transform="translate(-24.56 -12.97)"/><path class="cls-2" d="M230,129.77a7.84,7.84,0,0,1-1.51,5,5.34,5.34,0,0,1-2.88,2,7.81,7.81,0,0,1-2.33.32,6.61,6.61,0,0,1-4.08-1.22,7,7,0,0,1-2.13-2.71,10.92,10.92,0,0,1-.92-4l4-.27a6,6,0,0,0,1.29,3.5,2.12,2.12,0,0,0,1.72.78,2.62,2.62,0,0,0,2.2-1.34,3.41,3.41,0,0,0,.42-1.84,5.12,5.12,0,0,0-1.57-3.46L220.5,123a15.4,15.4,0,0,1-2.94-3.61,8.42,8.42,0,0,1-.92-3.89,6.77,6.77,0,0,1,2.54-5.74,6.32,6.32,0,0,1,3.9-1.18,7.09,7.09,0,0,1,3.84,1,5.81,5.81,0,0,1,2,2.17,8.3,8.3,0,0,1,.93,3.2l-4,.73a4.66,4.66,0,0,0-1-2.64,2,2,0,0,0-1.66-.71,1.93,1.93,0,0,0-1.75,1,4,4,0,0,0-.48,2,6.12,6.12,0,0,0,1.64,3.89,15.75,15.75,0,0,0,1.86,1.76c1,.82,1.62,1.38,1.93,1.71a14.37,14.37,0,0,1,2.39,3.06,11.14,11.14,0,0,1,.64,1.31A7.89,7.89,0,0,1,230,129.77Z" transform="translate(-24.56 -12.97)"/><path class="cls-2" d="M236.11,113.09h-4.44V108.9h13.06v4.19H240.3v23.58h-4.19Z" transform="translate(-24.56 -12.97)"/><path class="cls-2" d="M253,108.56a6.64,6.64,0,0,1,6.65,6.66v15.15A6.64,6.64,0,0,1,253,137a6.32,6.32,0,0,1-4.68-2,6.43,6.43,0,0,1-1.93-4.7V115.22a6.66,6.66,0,0,1,6.61-6.66Zm2.28,6.58a2.4,2.4,0,0,0-4.08-1.7,2.27,2.27,0,0,0-.71,1.7v15.2a2.27,2.27,0,0,0,.71,1.69,2.39,2.39,0,0,0,4.08-1.69Z" transform="translate(-24.56 -12.97)"/><path class="cls-2" d="M268.67,108.9q3.49,0,5.13,1.93a7,7,0,0,1,1.45,4.69v4a6.43,6.43,0,0,1-2.24,5l3.1,12.14H271.6L269,126.18h-2.78v10.48h-4.19V108.9Zm2.5,6.7a2.12,2.12,0,0,0-2.39-2.42h-2.52v8.87h2.52a2.26,2.26,0,0,0,1.69-.7,2.33,2.33,0,0,0,.7-1.7Z" transform="translate(-24.56 -12.97)"/><path class="cls-2" d="M283.6,130.29l-1,6.38h-4.35l4.7-27.77h5.78l4.64,27.77H289l-1-6.38Zm2.2-15-1.56,10.95h3.11Z" transform="translate(-24.56 -12.97)"/><path class="cls-2" d="M301.63,137A6.64,6.64,0,0,1,295,130.4V115.19a6.64,6.64,0,0,1,11.34-4.69,6.45,6.45,0,0,1,1.93,4.69v3.16h-4.34v-3.24a2.41,2.41,0,1,0-4.81,0v15.24a2.41,2.41,0,1,0,4.81,0v-5.46h-2.33V120.7h6.67v9.7a6.62,6.62,0,0,1-6.63,6.62Z" transform="translate(-24.56 -12.97)"/><path class="cls-2" d="M310.63,136.67V108.9h11.92v4.19h-7.73v7.61h5.65v4.19h-5.65v7.59h7.73v4.19Z" transform="translate(-24.56 -12.97)"/><path class="cls-2" d="M230,163.82a7.84,7.84,0,0,1-1.51,5,5.34,5.34,0,0,1-2.88,2,7.81,7.81,0,0,1-2.33.32,6.61,6.61,0,0,1-4.08-1.22,7,7,0,0,1-2.13-2.72,10.82,10.82,0,0,1-.92-3.95l4-.27a6,6,0,0,0,1.29,3.5,2.12,2.12,0,0,0,1.72.78,2.62,2.62,0,0,0,2.2-1.34,3.42,3.42,0,0,0,.42-1.85,5.1,5.1,0,0,0-1.57-3.45L220.5,157a15.4,15.4,0,0,1-2.94-3.61,8.43,8.43,0,0,1-.92-3.9,6.75,6.75,0,0,1,2.54-5.73,6.26,6.26,0,0,1,3.9-1.18,7.09,7.09,0,0,1,3.84,1,5.73,5.73,0,0,1,2,2.17,8.25,8.25,0,0,1,.93,3.2l-4,.73a4.69,4.69,0,0,0-1-2.65,2,2,0,0,0-1.66-.7,1.93,1.93,0,0,0-1.75,1,4,4,0,0,0-.48,2,6.12,6.12,0,0,0,1.64,3.89,15.75,15.75,0,0,0,1.86,1.76c1,.82,1.62,1.38,1.93,1.71a14.37,14.37,0,0,1,2.39,3.06,10.43,10.43,0,0,1,.64,1.31A7.89,7.89,0,0,1,230,163.82Z" transform="translate(-24.56 -12.97)"/><path class="cls-2" d="M235.82,159.09,230.22,143h4.6l3.11,10L241,143h4.63L240,159.09v11.63h-4.19Z" transform="translate(-24.56 -12.97)"/><path class="cls-2" d="M259.44,163.82a7.78,7.78,0,0,1-1.51,5,5.34,5.34,0,0,1-2.88,2,7.76,7.76,0,0,1-2.33.32,6.61,6.61,0,0,1-4.08-1.22,7,7,0,0,1-2.13-2.72,10.62,10.62,0,0,1-.91-3.95l4-.27a6.08,6.08,0,0,0,1.3,3.5,2.11,2.11,0,0,0,1.72.78,2.62,2.62,0,0,0,2.19-1.34,3.42,3.42,0,0,0,.43-1.85,5.14,5.14,0,0,0-1.57-3.45L249.91,157a15.4,15.4,0,0,1-2.94-3.61,8.31,8.31,0,0,1-.93-3.9,6.78,6.78,0,0,1,2.54-5.73,6.3,6.3,0,0,1,3.9-1.18,7.09,7.09,0,0,1,3.84,1,5.73,5.73,0,0,1,2,2.17,8.08,8.08,0,0,1,.93,3.2l-4,.73a4.69,4.69,0,0,0-1-2.65,2.06,2.06,0,0,0-1.66-.7,1.92,1.92,0,0,0-1.75,1,3.9,3.9,0,0,0-.49,2,6.18,6.18,0,0,0,1.64,3.89,15.75,15.75,0,0,0,1.86,1.76c1,.82,1.62,1.38,1.93,1.71a14.05,14.05,0,0,1,2.39,3.06,9.21,9.21,0,0,1,.64,1.31A7.66,7.66,0,0,1,259.44,163.82Z" transform="translate(-24.56 -12.97)"/><path class="cls-2" d="M265.51,147.14h-4.44V143h13.06v4.19H269.7v23.58h-4.19Z" transform="translate(-24.56 -12.97)"/><path class="cls-2" d="M276.25,170.72V143h11.92v4.19h-7.73v7.61h5.65v4.18h-5.65v7.6h7.73v4.19Z" transform="translate(-24.56 -12.97)"/><path class="cls-2" d="M294,170.72H289.8V143h6l3.9,19.91L303.45,143h5.77v27.77H305V153.27l-3.62,17.45h-3.36L294,153.32Z" transform="translate(-24.56 -12.97)"/><path class="cls-2" d="M325.33,163.82a7.84,7.84,0,0,1-1.51,5,5.34,5.34,0,0,1-2.88,2,7.81,7.81,0,0,1-2.33.32,6.61,6.61,0,0,1-4.08-1.22,7,7,0,0,1-2.13-2.72,10.62,10.62,0,0,1-.91-3.95l4-.27a6,6,0,0,0,1.29,3.5,2.12,2.12,0,0,0,1.72.78,2.62,2.62,0,0,0,2.2-1.34,3.42,3.42,0,0,0,.42-1.85,5.1,5.1,0,0,0-1.57-3.45L315.79,157a15.07,15.07,0,0,1-2.93-3.61,8.31,8.31,0,0,1-.93-3.9,6.75,6.75,0,0,1,2.54-5.73,6.28,6.28,0,0,1,3.9-1.18,7.09,7.09,0,0,1,3.84,1,5.73,5.73,0,0,1,2,2.17,8.08,8.08,0,0,1,.93,3.2l-4,.73a4.69,4.69,0,0,0-1-2.65,2,2,0,0,0-1.66-.7,1.93,1.93,0,0,0-1.75,1,4,4,0,0,0-.48,2,6.12,6.12,0,0,0,1.64,3.89,15.75,15.75,0,0,0,1.86,1.76c1,.82,1.62,1.38,1.93,1.71a14.37,14.37,0,0,1,2.39,3.06,9.21,9.21,0,0,1,.64,1.31A7.66,7.66,0,0,1,325.33,163.82Z" transform="translate(-24.56 -12.97)"/><path class="cls-2" d="M327,170.72v-4.16h4.18v4.16l-1.51,3.18h-1.78l1-3.18Z" transform="translate(-24.56 -12.97)"/><path class="cls-2" d="M350.73,170.72H339.31V143h4.19v23.61h7.23Z" transform="translate(-24.56 -12.97)"/><path class="cls-2" d="M363.76,170.72H352.35V143h4.18v23.61h7.23Z" transform="translate(-24.56 -12.97)"/><path class="cls-2" d="M372,171.07a6.59,6.59,0,0,1-6.64-6.62V149.24a6.63,6.63,0,1,1,13.26,0v3.16H374.3v-3.24a2.33,2.33,0,0,0-.71-1.71,2.3,2.3,0,0,0-1.71-.71,2.27,2.27,0,0,0-1.69.71,2.32,2.32,0,0,0-.7,1.71V164.4a2.39,2.39,0,0,0,2.39,2.41,2.36,2.36,0,0,0,1.71-.7,2.33,2.33,0,0,0,.71-1.71v-3.82h4.34v3.87a6.62,6.62,0,0,1-6.62,6.62Z" transform="translate(-24.56 -12.97)"/></g></svg>